<?xml version="1.0" encoding="UTF-8" standalone="no"?>
<!-- Created with Inkscape (http://www.inkscape.org/) -->

<svg
   version="1.1"
   id="svg1"
   width="554.92249"
   height="414.47433"
   viewBox="0 0 554.92249 414.47433"
   sodipodi:docname="BS_Mono_Light_Curve.svg"
   inkscape:version="1.4.3 (0d15f75, 2025-12-25)"
   xmlns:inkscape="http://www.inkscape.org/namespaces/inkscape"
   xmlns:sodipodi="http://sodipodi.sourceforge.net/DTD/sodipodi-0.dtd"
   xmlns="http://www.w3.org/2000/svg"
   xmlns:svg="http://www.w3.org/2000/svg">
  <defs
     id="defs1" />
  <sodipodi:namedview
     id="namedview1"
     pagecolor="#ffffff"
     bordercolor="#000000"
     borderopacity="0.25"
     inkscape:showpageshadow="2"
     inkscape:pageopacity="0.0"
     inkscape:pagecheckerboard="0"
     inkscape:deskcolor="#d1d1d1"
     inkscape:zoom="2.1352347"
     inkscape:cx="277.48705"
     inkscape:cy="207.23717"
     inkscape:window-width="1920"
     inkscape:window-height="1129"
     inkscape:window-x="1358"
     inkscape:window-y="-8"
     inkscape:window-maximized="1"
     inkscape:current-layer="g1" />
  <g
     id="g1"
     inkscape:groupmode="layer"
     inkscape:label="1">
    <path
       id="path1"
       d="M 0,0 H 416.19187 V 310.85575 H 0 Z"
       style="fill:#ffffff;fill-opacity:1;fill-rule:nonzero;stroke:none"
       transform="matrix(1.3333333,0,0,-1.3333333,0,414.47433)" />
    <path
       id="path2"
       d="M 51.871875,37.54375 H 408.99187 v 266.112 H 51.871875 Z"
       style="fill:#ffffff;fill-opacity:1;fill-rule:nonzero;stroke:none"
       transform="matrix(1.3333333,0,0,-1.3333333,0,414.47433)" />
    <path
       id="path3"
       d="m 62.710674,37.54375 v -3.5"
       style="fill:#000000;fill-opacity:1;fill-rule:nonzero;stroke:#000000;stroke-width:0.8;stroke-linecap:butt;stroke-linejoin:round;stroke-miterlimit:10;stroke-dasharray:none;stroke-opacity:1"
       transform="matrix(1.3333333,0,0,-1.3333333,0,414.47433)" />
    <text
       id="text3"
       xml:space="preserve"
       transform="matrix(1.3333333,0,0,1.3333333,79.374649,383.87433)"><tspan
         id="tspan3"
         style="font-variant:normal;font-weight:normal;font-size:10px;font-family:'DejaVu Sans';writing-mode:lr-tb;fill:#000000;fill-opacity:1;fill-rule:nonzero;stroke:none"
         x="0"
         y="0">0</tspan></text>
    <path
       id="path4"
       d="m 140.35879,37.54375 v -3.5"
       style="fill:#000000;fill-opacity:1;fill-rule:nonzero;stroke:#000000;stroke-width:0.8;stroke-linecap:butt;stroke-linejoin:round;stroke-miterlimit:10;stroke-dasharray:none;stroke-opacity:1"
       transform="matrix(1.3333333,0,0,-1.3333333,0,414.47433)" />
    <text
       id="text4"
       xml:space="preserve"
       transform="matrix(1.3333333,0,0,1.3333333,182.90547,383.87433)"><tspan
         id="tspan4"
         style="font-variant:normal;font-weight:normal;font-size:10px;font-family:'DejaVu Sans';writing-mode:lr-tb;fill:#000000;fill-opacity:1;fill-rule:nonzero;stroke:none"
         x="0"
         y="0">2</tspan></text>
    <path
       id="path5"
       d="m 218.00691,37.54375 v -3.5"
       style="fill:#000000;fill-opacity:1;fill-rule:nonzero;stroke:#000000;stroke-width:0.8;stroke-linecap:butt;stroke-linejoin:round;stroke-miterlimit:10;stroke-dasharray:none;stroke-opacity:1"
       transform="matrix(1.3333333,0,0,-1.3333333,0,414.47433)" />
    <text
       id="text5"
       xml:space="preserve"
       transform="matrix(1.3333333,0,0,1.3333333,286.4363,383.87433)"><tspan
         id="tspan5"
         style="font-variant:normal;font-weight:normal;font-size:10px;font-family:'DejaVu Sans';writing-mode:lr-tb;fill:#000000;fill-opacity:1;fill-rule:nonzero;stroke:none"
         x="0"
         y="0">4</tspan></text>
    <path
       id="path6"
       d="m 295.65503,37.54375 v -3.5"
       style="fill:#000000;fill-opacity:1;fill-rule:nonzero;stroke:#000000;stroke-width:0.8;stroke-linecap:butt;stroke-linejoin:round;stroke-miterlimit:10;stroke-dasharray:none;stroke-opacity:1"
       transform="matrix(1.3333333,0,0,-1.3333333,0,414.47433)" />
    <text
       id="text6"
       xml:space="preserve"
       transform="matrix(1.3333333,0,0,1.3333333,389.96712,383.87433)"><tspan
         id="tspan6"
         style="font-variant:normal;font-weight:normal;font-size:10px;font-family:'DejaVu Sans';writing-mode:lr-tb;fill:#000000;fill-opacity:1;fill-rule:nonzero;stroke:none"
         x="0"
         y="0">6</tspan></text>
    <path
       id="path7"
       d="m 373.30315,37.54375 v -3.5"
       style="fill:#000000;fill-opacity:1;fill-rule:nonzero;stroke:#000000;stroke-width:0.8;stroke-linecap:butt;stroke-linejoin:round;stroke-miterlimit:10;stroke-dasharray:none;stroke-opacity:1"
       transform="matrix(1.3333333,0,0,-1.3333333,0,414.47433)" />
    <text
       id="text7"
       xml:space="preserve"
       transform="matrix(1.3333333,0,0,1.3333333,493.49795,383.87433)"><tspan
         id="tspan7"
         style="font-variant:normal;font-weight:normal;font-size:10px;font-family:'DejaVu Sans';writing-mode:lr-tb;fill:#000000;fill-opacity:1;fill-rule:nonzero;stroke:none"
         x="0"
         y="0">8</tspan></text>
    <text
       id="text8"
       xml:space="preserve"
       transform="matrix(1.3333333,0,0,1.3333333,280.06542,402.1035)"><tspan
         id="tspan8"
         style="font-variant:normal;font-weight:normal;font-size:10px;font-family:'DejaVu Sans';writing-mode:lr-tb;fill:#000000;fill-opacity:1;fill-rule:nonzero;stroke:none"
         x="0"
         dx="0 -0.296875"
         y="0">Time (s)</tspan></text>
    <path
       id="path8"
       d="m 51.871875,88.476167 h -3.5"
       style="fill:#000000;fill-opacity:1;fill-rule:nonzero;stroke:#000000;stroke-width:0.8;stroke-linecap:butt;stroke-linejoin:round;stroke-miterlimit:10;stroke-dasharray:none;stroke-opacity:1"
       transform="matrix(1.3333333,0,0,-1.3333333,0,414.47433)" />
    <text
       id="text9"
       xml:space="preserve"
       transform="matrix(1.3333333,0,0,1.3333333,27.829167,301.15194)"><tspan
         id="tspan9"
         style="font-variant:normal;font-weight:normal;font-size:10px;font-family:'DejaVu Sans';writing-mode:lr-tb;fill:#000000;fill-opacity:1;fill-rule:nonzero;stroke:none"
         x="0"
         y="0">10</tspan><tspan
         id="tspan10"
         style="font-variant:normal;font-weight:normal;font-size:7px;font-family:'DejaVu Sans';writing-mode:lr-tb;fill:#000000;fill-opacity:1;fill-rule:nonzero;stroke:none"
         x="18.685547"
         y="-3.828125">2</tspan></text>
    <path
       d="M 106,355 H 732 V 272 H 106 Z"
       style="fill:#000000;fill-opacity:1;fill-rule:nonzero;stroke:none"
       transform="matrix(0.00933333,0,0,-0.00933333,44.922917,296.04778)"
       opacity="1"
       id="path10" />
    <path
       id="path11"
       d="m 51.871875,190.01796 h -3.5"
       style="fill:#000000;fill-opacity:1;fill-rule:nonzero;stroke:#000000;stroke-width:0.8;stroke-linecap:butt;stroke-linejoin:round;stroke-miterlimit:10;stroke-dasharray:none;stroke-opacity:1"
       transform="matrix(1.3333333,0,0,-1.3333333,0,414.47433)" />
    <text
       id="text11"
       xml:space="preserve"
       transform="matrix(1.3333333,0,0,1.3333333,27.829167,166.31289)"><tspan
         id="tspan11"
         style="font-variant:normal;font-weight:normal;font-size:10px;font-family:'DejaVu Sans';writing-mode:lr-tb;fill:#000000;fill-opacity:1;fill-rule:nonzero;stroke:none"
         x="0"
         y="0">10</tspan><tspan
         id="tspan12"
         style="font-variant:normal;font-weight:normal;font-size:7px;font-family:'DejaVu Sans';writing-mode:lr-tb;fill:#000000;fill-opacity:1;fill-rule:nonzero;stroke:none"
         x="18.685547"
         y="-3.828125">1</tspan></text>
    <path
       d="M 106,355 H 732 V 272 H 106 Z"
       style="fill:#000000;fill-opacity:1;fill-rule:nonzero;stroke:none"
       transform="matrix(0.00933333,0,0,-0.00933333,44.922917,161.20872)"
       opacity="1"
       id="path12" />
    <path
       id="path13"
       d="m 51.871875,291.55975 h -3.5"
       style="fill:#000000;fill-opacity:1;fill-rule:nonzero;stroke:#000000;stroke-width:0.8;stroke-linecap:butt;stroke-linejoin:round;stroke-miterlimit:10;stroke-dasharray:none;stroke-opacity:1"
       transform="matrix(1.3333333,0,0,-1.3333333,0,414.47433)" />
    <text
       id="text13"
       xml:space="preserve"
       transform="matrix(1.3333333,0,0,1.3333333,35.829167,30.373833)"><tspan
         id="tspan13"
         style="font-variant:normal;font-weight:normal;font-size:10px;font-family:'DejaVu Sans';writing-mode:lr-tb;fill:#000000;fill-opacity:1;fill-rule:nonzero;stroke:none"
         x="0"
         y="0">10</tspan><tspan
         id="tspan14"
         style="font-variant:normal;font-weight:normal;font-size:7px;font-family:'DejaVu Sans';writing-mode:lr-tb;fill:#000000;fill-opacity:1;fill-rule:nonzero;stroke:none"
         x="12.820312"
         y="-3.828125">0</tspan></text>
    <path
       id="path14"
       d="m 51.871875,48.068626 h -2"
       style="fill:#000000;fill-opacity:1;fill-rule:nonzero;stroke:#000000;stroke-width:0.6;stroke-linecap:butt;stroke-linejoin:round;stroke-miterlimit:10;stroke-dasharray:none;stroke-opacity:1"
       transform="matrix(1.3333333,0,0,-1.3333333,0,414.47433)" />
    <path
       id="path15"
       d="m 51.871875,57.909042 h -2"
       style="fill:#000000;fill-opacity:1;fill-rule:nonzero;stroke:#000000;stroke-width:0.6;stroke-linecap:butt;stroke-linejoin:round;stroke-miterlimit:10;stroke-dasharray:none;stroke-opacity:1"
       transform="matrix(1.3333333,0,0,-1.3333333,0,414.47433)" />
    <path
       id="path16"
       d="m 51.871875,65.949248 h -2"
       style="fill:#000000;fill-opacity:1;fill-rule:nonzero;stroke:#000000;stroke-width:0.6;stroke-linecap:butt;stroke-linejoin:round;stroke-miterlimit:10;stroke-dasharray:none;stroke-opacity:1"
       transform="matrix(1.3333333,0,0,-1.3333333,0,414.47433)" />
    <path
       id="path17"
       d="m 51.871875,72.747145 h -2"
       style="fill:#000000;fill-opacity:1;fill-rule:nonzero;stroke:#000000;stroke-width:0.6;stroke-linecap:butt;stroke-linejoin:round;stroke-miterlimit:10;stroke-dasharray:none;stroke-opacity:1"
       transform="matrix(1.3333333,0,0,-1.3333333,0,414.47433)" />
    <path
       id="path18"
       d="m 51.871875,78.635751 h -2"
       style="fill:#000000;fill-opacity:1;fill-rule:nonzero;stroke:#000000;stroke-width:0.6;stroke-linecap:butt;stroke-linejoin:round;stroke-miterlimit:10;stroke-dasharray:none;stroke-opacity:1"
       transform="matrix(1.3333333,0,0,-1.3333333,0,414.47433)" />
    <path
       id="path19"
       d="m 51.871875,83.829869 h -2"
       style="fill:#000000;fill-opacity:1;fill-rule:nonzero;stroke:#000000;stroke-width:0.6;stroke-linecap:butt;stroke-linejoin:round;stroke-miterlimit:10;stroke-dasharray:none;stroke-opacity:1"
       transform="matrix(1.3333333,0,0,-1.3333333,0,414.47433)" />
    <path
       id="path20"
       d="m 51.871875,119.04329 h -2"
       style="fill:#000000;fill-opacity:1;fill-rule:nonzero;stroke:#000000;stroke-width:0.6;stroke-linecap:butt;stroke-linejoin:round;stroke-miterlimit:10;stroke-dasharray:none;stroke-opacity:1"
       transform="matrix(1.3333333,0,0,-1.3333333,0,414.47433)" />
    <path
       id="path21"
       d="m 51.871875,136.92391 h -2"
       style="fill:#000000;fill-opacity:1;fill-rule:nonzero;stroke:#000000;stroke-width:0.6;stroke-linecap:butt;stroke-linejoin:round;stroke-miterlimit:10;stroke-dasharray:none;stroke-opacity:1"
       transform="matrix(1.3333333,0,0,-1.3333333,0,414.47433)" />
    <path
       id="path22"
       d="m 51.871875,149.61042 h -2"
       style="fill:#000000;fill-opacity:1;fill-rule:nonzero;stroke:#000000;stroke-width:0.6;stroke-linecap:butt;stroke-linejoin:round;stroke-miterlimit:10;stroke-dasharray:none;stroke-opacity:1"
       transform="matrix(1.3333333,0,0,-1.3333333,0,414.47433)" />
    <path
       id="path23"
       d="m 51.871875,159.45083 h -2"
       style="fill:#000000;fill-opacity:1;fill-rule:nonzero;stroke:#000000;stroke-width:0.6;stroke-linecap:butt;stroke-linejoin:round;stroke-miterlimit:10;stroke-dasharray:none;stroke-opacity:1"
       transform="matrix(1.3333333,0,0,-1.3333333,0,414.47433)" />
    <path
       id="path24"
       d="m 51.871875,167.49104 h -2"
       style="fill:#000000;fill-opacity:1;fill-rule:nonzero;stroke:#000000;stroke-width:0.6;stroke-linecap:butt;stroke-linejoin:round;stroke-miterlimit:10;stroke-dasharray:none;stroke-opacity:1"
       transform="matrix(1.3333333,0,0,-1.3333333,0,414.47433)" />
    <path
       id="path25"
       d="m 51.871875,174.28894 h -2"
       style="fill:#000000;fill-opacity:1;fill-rule:nonzero;stroke:#000000;stroke-width:0.6;stroke-linecap:butt;stroke-linejoin:round;stroke-miterlimit:10;stroke-dasharray:none;stroke-opacity:1"
       transform="matrix(1.3333333,0,0,-1.3333333,0,414.47433)" />
    <path
       id="path26"
       d="m 51.871875,180.17754 h -2"
       style="fill:#000000;fill-opacity:1;fill-rule:nonzero;stroke:#000000;stroke-width:0.6;stroke-linecap:butt;stroke-linejoin:round;stroke-miterlimit:10;stroke-dasharray:none;stroke-opacity:1"
       transform="matrix(1.3333333,0,0,-1.3333333,0,414.47433)" />
    <path
       id="path27"
       d="m 51.871875,185.37166 h -2"
       style="fill:#000000;fill-opacity:1;fill-rule:nonzero;stroke:#000000;stroke-width:0.6;stroke-linecap:butt;stroke-linejoin:round;stroke-miterlimit:10;stroke-dasharray:none;stroke-opacity:1"
       transform="matrix(1.3333333,0,0,-1.3333333,0,414.47433)" />
    <path
       id="path28"
       d="m 51.871875,220.58508 h -2"
       style="fill:#000000;fill-opacity:1;fill-rule:nonzero;stroke:#000000;stroke-width:0.6;stroke-linecap:butt;stroke-linejoin:round;stroke-miterlimit:10;stroke-dasharray:none;stroke-opacity:1"
       transform="matrix(1.3333333,0,0,-1.3333333,0,414.47433)" />
    <path
       id="path29"
       d="m 51.871875,238.4657 h -2"
       style="fill:#000000;fill-opacity:1;fill-rule:nonzero;stroke:#000000;stroke-width:0.6;stroke-linecap:butt;stroke-linejoin:round;stroke-miterlimit:10;stroke-dasharray:none;stroke-opacity:1"
       transform="matrix(1.3333333,0,0,-1.3333333,0,414.47433)" />
    <path
       id="path30"
       d="m 51.871875,251.15221 h -2"
       style="fill:#000000;fill-opacity:1;fill-rule:nonzero;stroke:#000000;stroke-width:0.6;stroke-linecap:butt;stroke-linejoin:round;stroke-miterlimit:10;stroke-dasharray:none;stroke-opacity:1"
       transform="matrix(1.3333333,0,0,-1.3333333,0,414.47433)" />
    <path
       id="path31"
       d="m 51.871875,260.99262 h -2"
       style="fill:#000000;fill-opacity:1;fill-rule:nonzero;stroke:#000000;stroke-width:0.6;stroke-linecap:butt;stroke-linejoin:round;stroke-miterlimit:10;stroke-dasharray:none;stroke-opacity:1"
       transform="matrix(1.3333333,0,0,-1.3333333,0,414.47433)" />
    <path
       id="path32"
       d="m 51.871875,269.03283 h -2"
       style="fill:#000000;fill-opacity:1;fill-rule:nonzero;stroke:#000000;stroke-width:0.6;stroke-linecap:butt;stroke-linejoin:round;stroke-miterlimit:10;stroke-dasharray:none;stroke-opacity:1"
       transform="matrix(1.3333333,0,0,-1.3333333,0,414.47433)" />
    <path
       id="path33"
       d="m 51.871875,275.83073 h -2"
       style="fill:#000000;fill-opacity:1;fill-rule:nonzero;stroke:#000000;stroke-width:0.6;stroke-linecap:butt;stroke-linejoin:round;stroke-miterlimit:10;stroke-dasharray:none;stroke-opacity:1"
       transform="matrix(1.3333333,0,0,-1.3333333,0,414.47433)" />
    <path
       id="path34"
       d="m 51.871875,281.71933 h -2"
       style="fill:#000000;fill-opacity:1;fill-rule:nonzero;stroke:#000000;stroke-width:0.6;stroke-linecap:butt;stroke-linejoin:round;stroke-miterlimit:10;stroke-dasharray:none;stroke-opacity:1"
       transform="matrix(1.3333333,0,0,-1.3333333,0,414.47433)" />
    <path
       id="path35"
       d="m 51.871875,286.91345 h -2"
       style="fill:#000000;fill-opacity:1;fill-rule:nonzero;stroke:#000000;stroke-width:0.6;stroke-linecap:butt;stroke-linejoin:round;stroke-miterlimit:10;stroke-dasharray:none;stroke-opacity:1"
       transform="matrix(1.3333333,0,0,-1.3333333,0,414.47433)" />
    <text
       id="text35"
       xml:space="preserve"
       transform="matrix(0,-1.3333333,1.3333333,0,19.725,326.29967)"><tspan
         id="tspan35"
         style="font-variant:normal;font-weight:normal;font-size:10px;font-family:'DejaVu Sans';writing-mode:lr-tb;fill:#000000;fill-opacity:1;fill-rule:nonzero;stroke:none"
         x="0"
         dx="0 0 0 -0.171875"
         y="0">Normalized photon count (arbitrary units)</tspan></text>
    <path
       id="path36"
       d="m 68.104602,203.56015 0.799015,51.90283 0.799014,18.23125 0.799015,9.23217 0.799014,4.0804 0.799015,2.9437 0.799014,1.60607 0.799014,0.003 0.799015,-0.62119 0.799014,-0.18419 0.799015,-1.18642 0.799014,-0.70584 0.799015,-1.79718 0.799014,-1.77814 0.799015,-1.63359 0.799014,-2.14342 0.799015,-1.52767 0.799014,-2.42832 0.799014,-1.40692 0.799015,-2.07759 0.799014,-1.86852 0.799015,-1.44378 0.799014,-2.13516 0.799015,-2.47519 0.799014,-1.8133 0.799015,-2.11006 0.799014,-0.72325 0.799015,-3.31842 0.799014,-1.26158 0.799014,-1.74996 0.799015,-2.5659 0.799014,-1.55381 0.799015,-2.09666 0.799014,-1.40063 0.799015,-1.33976 0.799014,-2.58134 0.799015,-1.39826 0.799014,-1.91408 0.799014,-2.73546 0.799015,-0.824 0.799014,-1.93675 0.79902,-2.42526 0.79901,-0.89688 0.79901,-1.91517 0.79902,-3.09393 0.79901,-0.36302 0.79902,-1.42474 0.79901,-2.12084 0.79902,-1.59337 0.79901,-0.46716 0.79901,-3.45094 0.79902,-1.4704 0.79901,-2.00277 0.79902,-1.28518 0.79901,-0.99887 0.79902,-1.72018 0.79901,-1.59925 0.79902,-2.05652 0.79901,-1.75177 0.79902,-1.58456 0.79901,-2.81264 0.79901,-2.04664 0.79902,-1.149 0.79901,-0.69014 0.79902,-1.97736 0.79901,-1.03039 0.79902,-2.37108 0.79901,-2.67251 0.79902,-0.57141 0.79901,-2.45203 0.79901,-1.78829 0.79902,-0.99822 0.79901,-0.24834 0.79902,-3.03294 0.79901,-1.291 0.79902,-2.2987 0.79901,-1.91073 0.79901,-2.36365 0.79902,-2.7057 0.79901,-0.68331 0.79902,-1.94944 0.79901,-3.09594 0.79902,-3.13808 0.79901,-1.29427 0.79902,-0.99625 0.79901,-0.71102 0.79901,-7.17496 0.79902,2.64985 0.79901,-2.73025 0.79902,-3.12595 0.79901,-2.94698 0.79902,-2.22554 0.79901,-3.90782 0.79902,-4.6994 0.79901,-1.68475 0.79901,-6.46185 0.79902,-4.95509 0.79901,-7.14357 0.79902,-7.29903 0.79901,-12.102398 0.79902,-26.681679"
       style="fill:none;stroke:#1f77b4;stroke-width:1.5;stroke-linecap:square;stroke-linejoin:round;stroke-miterlimit:10;stroke-dasharray:none;stroke-opacity:1"
       transform="matrix(1.3333333,0,0,-1.3333333,0,414.47433)" />
    <path
       id="path37"
       d="m 84.084891,291.55975 0.799015,-3.04573 0.799014,-2.97079 0.799015,-2.90028 0.799014,-2.83387 0.799015,-2.77123 0.799014,-2.71209 0.799015,-2.6562 0.799014,-2.60332 0.799014,-2.55326 0.799015,-2.50584 0.799014,-2.46087 0.799015,-2.41823 0.799014,-2.37777 0.799015,-2.33934 0.799014,-2.30287 0.799015,-2.26823 0.799014,-2.23533 0.799014,-2.20408 0.799015,-2.17442 0.799014,-2.14626 0.79902,-2.11955 0.79901,-2.0942 0.79901,-2.07021 0.79902,-2.04748 0.79901,-2.026 0.79902,-2.00572 0.79901,-1.9866 0.79902,-1.96862 0.79901,-1.95176 0.79901,-1.93597 0.79902,-1.92126 0.79901,-1.9076 0.79902,-1.89499 0.79901,-1.88342 0.79902,-1.87287 0.79901,-1.86336 0.79902,-1.85489 0.79901,-1.84746 0.79902,-1.84109 0.79901,-1.83581 0.79901,-1.83161 0.79902,-1.82855 0.79901,-1.82665 0.79902,-1.82595 0.79901,-1.82649 0.79902,-1.82835 0.79901,-1.83158 0.79902,-1.83624 0.79901,-1.84244 0.79901,-1.85027 0.79902,-1.85986 0.79901,-1.8713 0.79902,-1.8848 0.79901,-1.90051 0.79902,-1.91863 0.79901,-1.93942 0.79901,-1.96315 0.79902,-1.99018 0.79901,-2.02087 0.79902,-2.05572 0.79901,-2.09528 0.79902,-2.14025 0.79901,-2.19146 0.79902,-2.24994 0.79901,-2.31695 0.79901,-2.39416 0.79902,-2.48358 0.79901,-2.58793 0.79902,-2.71075 0.79901,-2.85684 0.79902,-3.03286 0.79901,-3.24826 0.79902,-3.51704 0.79901,-3.86074 0.79901,-4.31438 0.79902,-4.939 0.79901,-5.85135 0.79902,-7.30707 0.79901,-9.998359 0.79902,-16.749993"
       style="fill:none;stroke:#1f77b4;stroke-width:1.5;stroke-linecap:butt;stroke-linejoin:round;stroke-miterlimit:10;stroke-dasharray:5.55, 2.4;stroke-dashoffset:0;stroke-opacity:1"
       transform="matrix(1.3333333,0,0,-1.3333333,0,414.47433)" />
    <path
       id="path38"
       d="m 69.530379,227.43983 1.249529,37.09756 1.24953,13.7448 1.24953,7.62984 1.24953,3.31937 1.24953,2.25779 1.249529,0.0706 1.24953,-0.0353 1.24953,-1.52757 1.24953,-2.4776 1.249529,-0.80579 1.24953,-1.82238 1.24953,-1.68108 1.24953,-2.61643 1.249529,-2.10022 1.24953,-2.23483 1.24953,-2.12676 1.24953,-2.29577 1.24953,-2.58398 1.249529,-1.92299 1.24953,-2.37677 1.24953,-1.57214 1.24953,-2.42804 1.249529,-2.68607 1.24953,-2.3857 1.249527,-2.32391 1.24953,-2.21858 1.24953,-1.90977 1.24953,-1.8792 1.24953,-2.3497 1.24953,-1.86189 1.24953,-2.88664 1.24953,-1.77439 1.24953,-0.27373 1.24953,-3.68444 1.24953,-1.44489 1.24953,-1.8345 1.24953,-2.80255 1.24953,-1.47103 1.24953,-1.84311 1.24953,-2.11379 1.24953,-1.55892 1.24953,-1.2081 1.24953,-1.04047 1.24953,-3.27738 1.24953,-1.63349 1.24953,-2.74475 1.24953,-0.23998 1.24953,-2.44897 1.24953,-2.03897 1.24953,-1.7758 1.24953,-0.66133 1.24953,-1.64447 1.24953,-1.49603 1.24953,-2.44482 1.24953,-2.52063 1.24953,-2.87768 1.24953,1.3632 1.24952,-2.86944 1.24953,-1.44351 1.24953,-2.14966 1.24953,-2.38807 1.24953,-1.15638 1.24953,-0.79806 1.24953,-2.72199 1.24953,-0.62303 1.24953,-3.56737 1.24953,-1.18453 1.24953,-2.33655 1.24953,0.30127 1.24953,-4.35535 1.24953,-1.23935 1.24953,0.57149 1.24953,-3.5228 1.24953,-1.41184 1.24953,-3.09295 1.24953,-2.65142 1.24953,-1.86053 1.24953,-1.04633 1.24953,-3.14279 1.24953,-0.0615 1.24953,-3.58883 1.24953,2.43523 1.24953,-7.45028 1.24953,-0.30025 1.24953,-2.04252 1.24953,-2.89345 1.24953,-3.18717 1.24953,-2.37173 1.24953,-1.70476 1.24953,-4.87866 1.24953,1.84678 1.24953,-3.25582 1.24953,-3.70195 1.24953,-4.66014 1.24953,-4.97831 1.24953,-7.87003 1.24953,-1.5078 1.24953,-8.541561 1.24953,-13.508612 1.24953,-30.409347"
       style="fill:none;stroke:#ff7f0e;stroke-width:1.5;stroke-linecap:square;stroke-linejoin:round;stroke-miterlimit:10;stroke-dasharray:none;stroke-opacity:1"
       transform="matrix(1.3333333,0,0,-1.3333333,0,414.47433)" />
    <path
       id="path39"
       d="m 88.273325,291.55975 1.24953,-3.43816 1.24953,-3.34658 1.24953,-3.25929 1.249529,-3.17628 1.24953,-3.09744 1.24953,-3.02262 1.24953,-2.95164 1.249529,-2.88431 1.24953,-2.82045 1.249527,-2.75985 1.24953,-2.70237 1.24953,-2.64778 1.24953,-2.59596 1.24953,-2.54674 1.24953,-2.49997 1.24953,-2.45553 1.24953,-2.41328 1.24953,-2.37311 1.24953,-2.33491 1.24953,-2.29859 1.24953,-2.26405 1.24953,-2.2312 1.24953,-2.19998 1.24953,-2.17031 1.24953,-2.14211 1.24953,-2.11534 1.24953,-2.08994 1.24953,-2.06585 1.24953,-2.04303 1.24953,-2.02145 1.24953,-2.00106 1.24953,-1.98182 1.24953,-1.96373 1.24953,-1.94674 1.24953,-1.93082 1.24953,-1.91599 1.24953,-1.9022 1.24953,-1.88946 1.24953,-1.87774 1.24953,-1.86706 1.24953,-1.85742 1.24953,-1.8488 1.24952,-1.84122 1.24953,-1.83472 1.24953,-1.82928 1.24953,-1.82492 1.24953,-1.82171 1.24953,-1.81964 1.24953,-1.81876 1.24953,-1.81914 1.24953,-1.8208 1.24953,-1.82383 1.24953,-1.82828 1.24953,-1.83426 1.24953,-1.84185 1.24953,-1.85117 1.24953,-1.86234 1.24953,-1.87554 1.24953,-1.8909 1.24953,-1.90866 1.24953,-1.92905 1.24953,-1.95233 1.24953,-1.97884 1.24953,-2.00897 1.24953,-2.04316 1.24953,-2.08199 1.24953,-2.1261 1.24953,-2.17631 1.24953,-2.23362 1.24953,-2.29925 1.24953,-2.3748 1.24953,-2.46221 1.24953,-2.56408 1.24953,-2.68383 1.24953,-2.82599 1.24953,-2.99691 1.24953,-3.20552 1.24953,-3.46498 1.24953,-3.79536 1.24953,-4.22907 1.24953,-4.82181 1.24953,-5.678534 1.24953,-7.023373 1.24953,-9.439138 1.24953,-15.104001"
       style="fill:none;stroke:#ff7f0e;stroke-width:1.5;stroke-linecap:butt;stroke-linejoin:round;stroke-miterlimit:10;stroke-dasharray:5.55, 2.4;stroke-dashoffset:0;stroke-opacity:1"
       transform="matrix(1.3333333,0,0,-1.3333333,0,414.47433)" />
    <path
       id="path40"
       d="m 149.67764,245.3509 2.43082,24.20585 2.43081,8.93398 2.43082,5.56338 2.43081,3.11635 2.43082,0.57001 2.43081,1.47278 2.43082,1.68369 2.43081,-2.44488 2.43082,3.10769 2.43081,-1.73006 2.43082,-0.26486 2.43081,-0.20576 2.43082,-1.0062 2.43081,0.37079 2.43082,-0.42046 2.43081,-2.76912 2.43082,-0.10597 2.43081,-0.2794 2.43082,-0.18726 2.43081,-1.59683 2.43082,-1.36916 2.43081,-0.3021 2.43082,-2.7394 2.43081,0.47361 2.43082,-2.14856 2.43081,-1.24595 2.43082,-0.31294 2.43081,-0.88485 2.43082,-2.10693 2.43081,-0.9115 2.43082,-0.28989 2.43081,-2.06534 2.43082,-2.04695 2.43081,-0.74456 2.43082,-1.88655 2.43081,-1.24594 2.43082,0.21735 2.43081,-2.5436 2.43082,0.54783 2.43081,-1.97163 2.43082,-1.12926 2.43081,-0.71149 2.43082,-1.00059 2.43081,-0.81715 2.43082,-1.97668 2.43081,-1.61976 2.43082,-1.65248 2.43081,0.37581 2.43082,-3.91045 2.43081,0.25092 2.43082,-3.9225 2.43081,2.13532 2.43082,-1.93069 2.43081,-1.4528 2.43082,-2.05149 2.43082,-0.8556 2.43081,0.92922 2.43082,-3.20307 2.43081,1.43962 2.43082,-7.44703 2.43081,3.90128 2.43082,-3.36074 2.43081,-1.68842 2.43082,2.44303 2.43081,-6.07763 2.43082,1.04824 2.43081,-1.86397 2.43082,1.71574 2.43081,-4.58584 2.43082,-3.1879 2.43081,4.1655 2.43082,-2.37238 2.43081,-2.98991 2.43082,-4.86928 2.43081,1.00458 2.43082,0.1982 2.43081,-4.58043 2.43082,2.76373 2.43081,-4.86052 2.43082,-1.40256 2.43081,-0.79892 2.43082,-3.17516 2.43081,-0.52292 2.43082,-5.30385 2.43081,-1.20277 2.43082,2.27722 2.43081,-10.89015 2.43082,0.9773 2.43081,-1.34945 2.43082,2.65883 2.43081,-1.91765 2.43082,-3.83712 2.43081,-6.46507 2.43082,-6.48951 2.43081,2.44089 2.43082,-4.6463 2.43081,-8.72393 2.43082,-2.11716 2.43081,-16.45795 2.43082,-36.55584"
       style="fill:none;stroke:#2ca02c;stroke-width:1.5;stroke-linecap:square;stroke-linejoin:round;stroke-miterlimit:10;stroke-dasharray:none;stroke-opacity:1"
       transform="matrix(1.3333333,0,0,-1.3333333,0,414.47433)" />
    <path
       id="path41"
       d="m 149.67764,245.89873 2.43082,25.5201 2.43081,9.05 2.43082,4.81846 2.43081,2.85597 2.43082,1.7322 2.43081,1.0116 2.43082,0.51557 2.43081,0.15712 2.43082,-0.11115 2.43081,-0.31731 2.43082,-0.47904 2.43081,-0.60798 2.43082,-0.71212 2.43081,-0.79714 2.43082,-0.86715 2.43081,-0.92521 2.43082,-0.97365 2.43081,-1.01425 2.43082,-1.04841 2.43081,-1.07726 2.43082,-1.10165 2.43081,-1.12235 2.43082,-1.1399 2.43081,-1.15481 2.43082,-1.16748 2.43081,-1.17826 2.43082,-1.18741 2.43081,-1.19518 2.43082,-1.20177 2.43081,-1.20738 2.43082,-1.21213 2.43081,-1.21616 2.43082,-1.2196 2.43081,-1.22252 2.43082,-1.22505 2.43081,-1.22721 2.43082,-1.22913 2.43081,-1.23082 2.43082,-1.23237 2.43081,-1.23381 2.43082,-1.23519 2.43081,-1.23656 2.43082,-1.23795 2.43081,-1.23939 2.43082,-1.24092 2.43081,-1.24258 2.43082,-1.24438 2.43081,-1.24637 2.43082,-1.24856 2.43081,-1.25099 2.43082,-1.25368 2.43081,-1.25666 2.43082,-1.25997 2.43081,-1.26361 2.43082,-1.26764 2.43082,-1.27206 2.43081,-1.27693 2.43082,-1.28228 2.43081,-1.28812 2.43082,-1.29451 2.43081,-1.30149 2.43082,-1.3091 2.43081,-1.31738 2.43082,-1.3264 2.43081,-1.3362 2.43082,-1.34686 2.43081,-1.35843 2.43082,-1.37099 2.43081,-1.38465 2.43082,-1.39947 2.43081,-1.41559 2.43082,-1.43311 2.43081,-1.45217 2.43082,-1.47293 2.43081,-1.49558 2.43082,-1.5203 2.43081,-1.54735 2.43082,-1.57698 2.43081,-1.60953 2.43082,-1.64537 2.43081,-1.68494 2.43082,-1.72878 2.43081,-1.77752 2.43082,-1.83192 2.43081,-1.89294 2.43082,-1.96174 2.43081,-2.03979 2.43082,-2.12893 2.43081,-2.23156 2.43082,-2.35083 2.43081,-2.4909 2.43082,-2.65752 2.43081,-2.85876 2.43082,-3.10632 2.43081,-3.41787 2.43082,-3.82141 2.43081,-4.36416 2.43082,-5.13238 2.43081,-6.3028 2.43082,-8.30476"
       style="fill:none;stroke:#2ca02c;stroke-width:1.5;stroke-linecap:butt;stroke-linejoin:round;stroke-miterlimit:10;stroke-dasharray:5.55, 2.4;stroke-dashoffset:0;stroke-opacity:1"
       transform="matrix(1.3333333,0,0,-1.3333333,0,414.47433)" />
    <path
       id="path42"
       d="m 51.871875,37.54375 v 266.112"
       style="fill:none;stroke:#000000;stroke-width:0.8;stroke-linecap:square;stroke-linejoin:miter;stroke-miterlimit:10;stroke-dasharray:none;stroke-opacity:1"
       transform="matrix(1.3333333,0,0,-1.3333333,0,414.47433)" />
    <path
       id="path43"
       d="m 408.99187,37.54375 v 266.112"
       style="fill:none;stroke:#000000;stroke-width:0.8;stroke-linecap:square;stroke-linejoin:miter;stroke-miterlimit:10;stroke-dasharray:none;stroke-opacity:1"
       transform="matrix(1.3333333,0,0,-1.3333333,0,414.47433)" />
    <path
       id="path44"
       d="M 51.871875,37.54375 H 408.99187"
       style="fill:none;stroke:#000000;stroke-width:0.8;stroke-linecap:square;stroke-linejoin:miter;stroke-miterlimit:10;stroke-dasharray:none;stroke-opacity:1"
       transform="matrix(1.3333333,0,0,-1.3333333,0,414.47433)" />
    <path
       id="path45"
       d="M 51.871875,303.65575 H 408.99187"
       style="fill:none;stroke:#000000;stroke-width:0.8;stroke-linecap:square;stroke-linejoin:miter;stroke-miterlimit:10;stroke-dasharray:none;stroke-opacity:1"
       transform="matrix(1.3333333,0,0,-1.3333333,0,414.47433)" />
    <path
       id="path46"
       d="m 196.82,42.54375 h 205.17187 c 1.33334,0 2,0.666667 2,2 v 87.5 c 0,1.33333 -0.66666,2 -2,2 H 196.82 c -1.33333,0 -2,-0.66667 -2,-2 v -87.5 c 0,-1.333333 0.66667,-2 2,-2 z"
       style="fill:#ffffff;fill-opacity:0.8;fill-rule:nonzero;stroke:#cccccc;stroke-width:1;stroke-linecap:butt;stroke-linejoin:miter;stroke-miterlimit:10;stroke-dasharray:none;stroke-opacity:0.8"
       transform="matrix(1.3333333,0,0,-1.3333333,0,414.47433)" />
    <path
       id="path47"
       d="m 198.82,125.87187 h 10 10"
       style="fill:none;stroke:#1f77b4;stroke-width:1.5;stroke-linecap:square;stroke-linejoin:round;stroke-miterlimit:10;stroke-dasharray:none;stroke-opacity:1"
       transform="matrix(1.3333333,0,0,-1.3333333,0,414.47433)" />
    <text
       id="text47"
       xml:space="preserve"
       transform="matrix(1.3333333,0,0,1.3333333,310.58422,251.31183)"><tspan
         id="tspan47"
         style="font-variant:normal;font-weight:normal;font-size:10px;font-family:'DejaVu Sans';writing-mode:lr-tb;fill:#000000;fill-opacity:1;fill-rule:nonzero;stroke:none"
         x="0"
         y="0">=<tspan
   style="font-size:9px"
   id="tspan58">0.105,</tspan> scaling factor = <tspan
   style="font-size:9px"
   id="tspan66">27,739.0</tspan></tspan></text>
    <path
       d="M 461,347 H 150 c 5,-98 19,-167 41,-208 28,-51 66,-76 115,-76 48,0 86,25 114,76 24,45 37,114 41,208 z m -1,83 c -10,92 -23,154 -40,187 -28,51 -66,77 -114,77 -50,0 -88,-26 -114,-76 C 171,577 157,514 151,430 Z M 306,768 c 78,0 139,-35 184,-104 44,-69 67,-164 67,-286 C 557,256 534,161 490,93 445,24 384,-10 306,-10 227,-10 166,24 122,93 77,161 55,256 55,378 c 0,122 22,217 67,286 44,69 105,104 184,104 z"
       style="fill:#000000;fill-opacity:1;fill-rule:nonzero;stroke:none"
       transform="matrix(0.01333333,0,0,-0.01333333,302.42667,251.31183)"
       opacity="1"
       id="path48" />
    <path
       id="path49"
       d="m 198.82,111.12187 h 10 10"
       style="fill:none;stroke:#1f77b4;stroke-width:1.5;stroke-linecap:butt;stroke-linejoin:round;stroke-miterlimit:10;stroke-dasharray:5.55, 2.4;stroke-dashoffset:0;stroke-opacity:1"
       transform="matrix(1.3333333,0,0,-1.3333333,0,414.47433)" />
    <text
       id="text49"
       xml:space="preserve"
       transform="matrix(1.3333333,0,0,1.3333333,310.58422,270.9785)"><tspan
         id="tspan49"
         style="font-variant:normal;font-weight:normal;font-size:10px;font-family:'DejaVu Sans';writing-mode:lr-tb;fill:#000000;fill-opacity:1;fill-rule:nonzero;stroke:none"
         x="0"
         dx="0 0 0 0 0 0 0 0 0 -0.265625"
         y="0">=<tspan
   style="font-size:9px"
   id="tspan59">0.105,</tspan> Vyas Analytical</tspan></text>
    <path
       d="M 461,347 H 150 c 5,-98 19,-167 41,-208 28,-51 66,-76 115,-76 48,0 86,25 114,76 24,45 37,114 41,208 z m -1,83 c -10,92 -23,154 -40,187 -28,51 -66,77 -114,77 -50,0 -88,-26 -114,-76 C 171,577 157,514 151,430 Z M 306,768 c 78,0 139,-35 184,-104 44,-69 67,-164 67,-286 C 557,256 534,161 490,93 445,24 384,-10 306,-10 227,-10 166,24 122,93 77,161 55,256 55,378 c 0,122 22,217 67,286 44,69 105,104 184,104 z"
       style="fill:#000000;fill-opacity:1;fill-rule:nonzero;stroke:none"
       transform="matrix(0.01333333,0,0,-0.01333333,302.42667,270.9785)"
       opacity="1"
       id="path50" />
    <path
       id="path51"
       d="m 198.82,96.371875 h 10 10"
       style="fill:none;stroke:#ff7f0e;stroke-width:1.5;stroke-linecap:square;stroke-linejoin:round;stroke-miterlimit:10;stroke-dasharray:none;stroke-opacity:1"
       transform="matrix(1.3333333,0,0,-1.3333333,0,414.47433)" />
    <text
       id="text51"
       xml:space="preserve"
       transform="matrix(1.3333333,0,0,1.3333333,310.58422,290.64517)"><tspan
         id="tspan51"
         style="font-variant:normal;font-weight:normal;font-size:10px;font-family:'DejaVu Sans';writing-mode:lr-tb;fill:#000000;fill-opacity:1;fill-rule:nonzero;stroke:none"
         x="0"
         y="0">=<tspan
   style="font-size:9px"
   id="tspan60">0.155,</tspan> scaling factor = <tspan
   style="font-size:9px"
   id="tspan65">33,775.0</tspan></tspan></text>
    <path
       d="M 461,347 H 150 c 5,-98 19,-167 41,-208 28,-51 66,-76 115,-76 48,0 86,25 114,76 24,45 37,114 41,208 z m -1,83 c -10,92 -23,154 -40,187 -28,51 -66,77 -114,77 -50,0 -88,-26 -114,-76 C 171,577 157,514 151,430 Z M 306,768 c 78,0 139,-35 184,-104 44,-69 67,-164 67,-286 C 557,256 534,161 490,93 445,24 384,-10 306,-10 227,-10 166,24 122,93 77,161 55,256 55,378 c 0,122 22,217 67,286 44,69 105,104 184,104 z"
       style="fill:#000000;fill-opacity:1;fill-rule:nonzero;stroke:none"
       transform="matrix(0.01333333,0,0,-0.01333333,302.42667,290.64517)"
       opacity="1"
       id="path52" />
    <path
       id="path53"
       d="m 198.82,81.621875 h 10 10"
       style="fill:none;stroke:#ff7f0e;stroke-width:1.5;stroke-linecap:butt;stroke-linejoin:round;stroke-miterlimit:10;stroke-dasharray:5.55, 2.4;stroke-dashoffset:0;stroke-opacity:1"
       transform="matrix(1.3333333,0,0,-1.3333333,0,414.47433)" />
    <text
       id="text53"
       xml:space="preserve"
       transform="matrix(1.3333333,0,0,1.3333333,310.58422,310.31183)"><tspan
         id="tspan53"
         style="font-variant:normal;font-weight:normal;font-size:10px;font-family:'DejaVu Sans';writing-mode:lr-tb;fill:#000000;fill-opacity:1;fill-rule:nonzero;stroke:none"
         x="0"
         dx="0 0 0 0 0 0 0 0 0 -0.265625"
         y="0">=<tspan
   style="font-size:9px"
   id="tspan61">0.155,</tspan> Vyas Analytical</tspan></text>
    <path
       d="M 461,347 H 150 c 5,-98 19,-167 41,-208 28,-51 66,-76 115,-76 48,0 86,25 114,76 24,45 37,114 41,208 z m -1,83 c -10,92 -23,154 -40,187 -28,51 -66,77 -114,77 -50,0 -88,-26 -114,-76 C 171,577 157,514 151,430 Z M 306,768 c 78,0 139,-35 184,-104 44,-69 67,-164 67,-286 C 557,256 534,161 490,93 445,24 384,-10 306,-10 227,-10 166,24 122,93 77,161 55,256 55,378 c 0,122 22,217 67,286 44,69 105,104 184,104 z"
       style="fill:#000000;fill-opacity:1;fill-rule:nonzero;stroke:none"
       transform="matrix(0.01333333,0,0,-0.01333333,302.42667,310.31183)"
       opacity="1"
       id="path54" />
    <path
       id="path55"
       d="m 198.82,66.871875 h 10 10"
       style="fill:none;stroke:#2ca02c;stroke-width:1.5;stroke-linecap:square;stroke-linejoin:round;stroke-miterlimit:10;stroke-dasharray:none;stroke-opacity:1"
       transform="matrix(1.3333333,0,0,-1.3333333,0,414.47433)" />
    <text
       id="text55"
       xml:space="preserve"
       transform="matrix(1.3333333,0,0,1.3333333,310.58422,329.9785)"><tspan
         id="tspan55"
         style="font-variant:normal;font-weight:normal;font-size:10px;font-family:'DejaVu Sans';writing-mode:lr-tb;fill:#000000;fill-opacity:1;fill-rule:nonzero;stroke:none"
         x="0"
         y="0">=<tspan
   style="font-size:9px"
   id="tspan62">0.305,</tspan> scaling factor = <tspan
   style="font-size:9px"
   id="tspan64">3,821.0</tspan></tspan></text>
    <path
       d="M 461,347 H 150 c 5,-98 19,-167 41,-208 28,-51 66,-76 115,-76 48,0 86,25 114,76 24,45 37,114 41,208 z m -1,83 c -10,92 -23,154 -40,187 -28,51 -66,77 -114,77 -50,0 -88,-26 -114,-76 C 171,577 157,514 151,430 Z M 306,768 c 78,0 139,-35 184,-104 44,-69 67,-164 67,-286 C 557,256 534,161 490,93 445,24 384,-10 306,-10 227,-10 166,24 122,93 77,161 55,256 55,378 c 0,122 22,217 67,286 44,69 105,104 184,104 z"
       style="fill:#000000;fill-opacity:1;fill-rule:nonzero;stroke:none"
       transform="matrix(0.01333333,0,0,-0.01333333,302.42667,329.9785)"
       opacity="1"
       id="path56" />
    <path
       id="path57"
       d="m 198.82,52.121875 h 10 10"
       style="fill:none;stroke:#2ca02c;stroke-width:1.5;stroke-linecap:butt;stroke-linejoin:round;stroke-miterlimit:10;stroke-dasharray:5.55, 2.4;stroke-dashoffset:0;stroke-opacity:1"
       transform="matrix(1.3333333,0,0,-1.3333333,0,414.47433)" />
    <text
       id="text57"
       xml:space="preserve"
       transform="matrix(1.3333333,0,0,1.3333333,310.58422,349.64517)"><tspan
         id="tspan57"
         style="font-variant:normal;font-weight:normal;font-size:10px;font-family:'DejaVu Sans';writing-mode:lr-tb;fill:#000000;fill-opacity:1;fill-rule:nonzero;stroke:none"
         x="0"
         dx="0 0 0 0 0 0 0 0 0 -0.265625"
         y="0">=<tspan
   style="font-size:9px"
   id="tspan63">0.305,</tspan> Vyas Analytical</tspan></text>
    <path
       d="M 461,347 H 150 c 5,-98 19,-167 41,-208 28,-51 66,-76 115,-76 48,0 86,25 114,76 24,45 37,114 41,208 z m -1,83 c -10,92 -23,154 -40,187 -28,51 -66,77 -114,77 -50,0 -88,-26 -114,-76 C 171,577 157,514 151,430 Z M 306,768 c 78,0 139,-35 184,-104 44,-69 67,-164 67,-286 C 557,256 534,161 490,93 445,24 384,-10 306,-10 227,-10 166,24 122,93 77,161 55,256 55,378 c 0,122 22,217 67,286 44,69 105,104 184,104 z"
       style="fill:#000000;fill-opacity:1;fill-rule:nonzero;stroke:none"
       transform="matrix(0.01333333,0,0,-0.01333333,302.42667,349.64517)"
       opacity="1"
       id="path58" />
  </g>
</svg>
