<?xml version="1.0" encoding="UTF-8" standalone="no"?>
<!-- Created with Inkscape (http://www.inkscape.org/) -->

<svg
   version="1.1"
   id="svg1"
   width="567.64124"
   height="414.47433"
   viewBox="0 0 567.64124 414.47433"
   sodipodi:docname="CD_Light_Curve.svg"
   inkscape:version="1.4.3 (0d15f75, 2025-12-25)"
   xmlns:inkscape="http://www.inkscape.org/namespaces/inkscape"
   xmlns:sodipodi="http://sodipodi.sourceforge.net/DTD/sodipodi-0.dtd"
   xmlns="http://www.w3.org/2000/svg"
   xmlns:svg="http://www.w3.org/2000/svg">
  <defs
     id="defs1">
    <clipPath
       clipPathUnits="userSpaceOnUse"
       id="clipPath80">
      <path
         d="M 51.871876,37.543748 H 408.99189 V 303.65576 H 51.871876 Z"
         id="path80" />
    </clipPath>
  </defs>
  <sodipodi:namedview
     id="namedview1"
     pagecolor="#ffffff"
     bordercolor="#000000"
     borderopacity="0.25"
     inkscape:showpageshadow="2"
     inkscape:pageopacity="0.0"
     inkscape:pagecheckerboard="0"
     inkscape:deskcolor="#d1d1d1"
     inkscape:zoom="2.1352347"
     inkscape:cx="284.04371"
     inkscape:cy="207.23717"
     inkscape:window-width="1920"
     inkscape:window-height="1129"
     inkscape:window-x="1358"
     inkscape:window-y="-8"
     inkscape:window-maximized="1"
     inkscape:current-layer="g1" />
  <g
     id="g1"
     inkscape:groupmode="layer"
     inkscape:label="1">
    <path
       id="path1"
       d="M 0,0 H 425.73094 V 310.85575 H 0 Z"
       style="fill:#ffffff;fill-opacity:1;fill-rule:nonzero;stroke:none"
       transform="matrix(1.3333333,0,0,-1.3333333,0,414.47433)" />
    <path
       id="path2"
       d="M 51.871875,37.54375 H 408.99187 v 266.112 H 51.871875 Z"
       style="fill:#ffffff;fill-opacity:1;fill-rule:nonzero;stroke:none"
       transform="matrix(1.3333333,0,0,-1.3333333,0,414.47433)" />
    <path
       id="path3"
       d="m 56.280764,37.54375 v -3.5"
       style="fill:#000000;fill-opacity:1;fill-rule:nonzero;stroke:#000000;stroke-width:0.8;stroke-linecap:butt;stroke-linejoin:round;stroke-miterlimit:10;stroke-dasharray:none;stroke-opacity:1"
       transform="matrix(1.3333333,0,0,-1.3333333,0,414.47433)" />
    <text
       id="text3"
       xml:space="preserve"
       transform="matrix(1.3333333,0,0,1.3333333,70.801435,383.87433)"><tspan
         id="tspan3"
         style="font-variant:normal;font-weight:normal;font-size:10px;font-family:'DejaVu Sans';writing-mode:lr-tb;fill:#000000;fill-opacity:1;fill-rule:nonzero;stroke:none"
         x="0"
         y="0">0</tspan></text>
    <path
       id="path4"
       d="m 100.36965,37.54375 v -3.5"
       style="fill:#000000;fill-opacity:1;fill-rule:nonzero;stroke:#000000;stroke-width:0.8;stroke-linecap:butt;stroke-linejoin:round;stroke-miterlimit:10;stroke-dasharray:none;stroke-opacity:1"
       transform="matrix(1.3333333,0,0,-1.3333333,0,414.47433)" />
    <text
       id="text4"
       xml:space="preserve"
       transform="matrix(1.3333333,0,0,1.3333333,125.34704,383.87433)"><tspan
         id="tspan4"
         style="font-variant:normal;font-weight:normal;font-size:10px;font-family:'DejaVu Sans';writing-mode:lr-tb;fill:#000000;fill-opacity:1;fill-rule:nonzero;stroke:none"
         x="0"
         y="0">50</tspan></text>
    <path
       id="path5"
       d="m 144.45854,37.54375 v -3.5"
       style="fill:#000000;fill-opacity:1;fill-rule:nonzero;stroke:#000000;stroke-width:0.8;stroke-linecap:butt;stroke-linejoin:round;stroke-miterlimit:10;stroke-dasharray:none;stroke-opacity:1"
       transform="matrix(1.3333333,0,0,-1.3333333,0,414.47433)" />
    <text
       id="text5"
       xml:space="preserve"
       transform="matrix(1.3333333,0,0,1.3333333,179.89264,383.87433)"><tspan
         id="tspan5"
         style="font-variant:normal;font-weight:normal;font-size:10px;font-family:'DejaVu Sans';writing-mode:lr-tb;fill:#000000;fill-opacity:1;fill-rule:nonzero;stroke:none"
         x="0"
         y="0">100</tspan></text>
    <path
       id="path6"
       d="m 188.54743,37.54375 v -3.5"
       style="fill:#000000;fill-opacity:1;fill-rule:nonzero;stroke:#000000;stroke-width:0.8;stroke-linecap:butt;stroke-linejoin:round;stroke-miterlimit:10;stroke-dasharray:none;stroke-opacity:1"
       transform="matrix(1.3333333,0,0,-1.3333333,0,414.47433)" />
    <text
       id="text6"
       xml:space="preserve"
       transform="matrix(1.3333333,0,0,1.3333333,238.67782,383.87433)"><tspan
         id="tspan6"
         style="font-variant:normal;font-weight:normal;font-size:10px;font-family:'DejaVu Sans';writing-mode:lr-tb;fill:#000000;fill-opacity:1;fill-rule:nonzero;stroke:none"
         x="0"
         y="0">150</tspan></text>
    <path
       id="path7"
       d="m 232.63632,37.54375 v -3.5"
       style="fill:#000000;fill-opacity:1;fill-rule:nonzero;stroke:#000000;stroke-width:0.8;stroke-linecap:butt;stroke-linejoin:round;stroke-miterlimit:10;stroke-dasharray:none;stroke-opacity:1"
       transform="matrix(1.3333333,0,0,-1.3333333,0,414.47433)" />
    <text
       id="text7"
       xml:space="preserve"
       transform="matrix(1.3333333,0,0,1.3333333,297.46301,383.87433)"><tspan
         id="tspan7"
         style="font-variant:normal;font-weight:normal;font-size:10px;font-family:'DejaVu Sans';writing-mode:lr-tb;fill:#000000;fill-opacity:1;fill-rule:nonzero;stroke:none"
         x="0"
         y="0">200</tspan></text>
    <path
       id="path8"
       d="m 276.72521,37.54375 v -3.5"
       style="fill:#000000;fill-opacity:1;fill-rule:nonzero;stroke:#000000;stroke-width:0.8;stroke-linecap:butt;stroke-linejoin:round;stroke-miterlimit:10;stroke-dasharray:none;stroke-opacity:1"
       transform="matrix(1.3333333,0,0,-1.3333333,0,414.47433)" />
    <text
       id="text8"
       xml:space="preserve"
       transform="matrix(1.3333333,0,0,1.3333333,356.24819,383.87433)"><tspan
         id="tspan8"
         style="font-variant:normal;font-weight:normal;font-size:10px;font-family:'DejaVu Sans';writing-mode:lr-tb;fill:#000000;fill-opacity:1;fill-rule:nonzero;stroke:none"
         x="0"
         y="0">250</tspan></text>
    <path
       id="path9"
       d="m 320.8141,37.54375 v -3.5"
       style="fill:#000000;fill-opacity:1;fill-rule:nonzero;stroke:#000000;stroke-width:0.8;stroke-linecap:butt;stroke-linejoin:round;stroke-miterlimit:10;stroke-dasharray:none;stroke-opacity:1"
       transform="matrix(1.3333333,0,0,-1.3333333,0,414.47433)" />
    <text
       id="text9"
       xml:space="preserve"
       transform="matrix(1.3333333,0,0,1.3333333,415.03338,383.87433)"><tspan
         id="tspan9"
         style="font-variant:normal;font-weight:normal;font-size:10px;font-family:'DejaVu Sans';writing-mode:lr-tb;fill:#000000;fill-opacity:1;fill-rule:nonzero;stroke:none"
         x="0"
         y="0">300</tspan></text>
    <path
       id="path10"
       d="m 364.90299,37.54375 v -3.5"
       style="fill:#000000;fill-opacity:1;fill-rule:nonzero;stroke:#000000;stroke-width:0.8;stroke-linecap:butt;stroke-linejoin:round;stroke-miterlimit:10;stroke-dasharray:none;stroke-opacity:1"
       transform="matrix(1.3333333,0,0,-1.3333333,0,414.47433)" />
    <text
       id="text10"
       xml:space="preserve"
       transform="matrix(1.3333333,0,0,1.3333333,473.81856,383.87433)"><tspan
         id="tspan10"
         style="font-variant:normal;font-weight:normal;font-size:10px;font-family:'DejaVu Sans';writing-mode:lr-tb;fill:#000000;fill-opacity:1;fill-rule:nonzero;stroke:none"
         x="0"
         y="0">350</tspan></text>
    <path
       id="path11"
       d="m 408.99187,37.54375 v -3.5"
       style="fill:#000000;fill-opacity:1;fill-rule:nonzero;stroke:#000000;stroke-width:0.8;stroke-linecap:butt;stroke-linejoin:round;stroke-miterlimit:10;stroke-dasharray:none;stroke-opacity:1"
       transform="matrix(1.3333333,0,0,-1.3333333,0,414.47433)" />
    <text
       id="text11"
       xml:space="preserve"
       transform="matrix(1.3333333,0,0,1.3333333,532.60375,383.87433)"><tspan
         id="tspan11"
         style="font-variant:normal;font-weight:normal;font-size:10px;font-family:'DejaVu Sans';writing-mode:lr-tb;fill:#000000;fill-opacity:1;fill-rule:nonzero;stroke:none"
         x="0"
         y="0">400</tspan></text>
    <text
       id="text12"
       xml:space="preserve"
       transform="matrix(1.3333333,0,0,1.3333333,280.06542,402.1035)"><tspan
         id="tspan12"
         style="font-variant:normal;font-weight:normal;font-size:10px;font-family:'DejaVu Sans';writing-mode:lr-tb;fill:#000000;fill-opacity:1;fill-rule:nonzero;stroke:none"
         x="0"
         dx="0 -0.296875"
         y="0">Time (s)</tspan></text>
    <path
       id="path12"
       d="m 51.871875,50.055151 h -3.5"
       style="fill:#000000;fill-opacity:1;fill-rule:nonzero;stroke:#000000;stroke-width:0.8;stroke-linecap:butt;stroke-linejoin:round;stroke-miterlimit:10;stroke-dasharray:none;stroke-opacity:1"
       transform="matrix(1.3333333,0,0,-1.3333333,0,414.47433)" />
    <text
       id="text13"
       xml:space="preserve"
       transform="matrix(1.3333333,0,0,1.3333333,27.829167,352.37997)"><tspan
         id="tspan13"
         style="font-variant:normal;font-weight:normal;font-size:10px;font-family:'DejaVu Sans';writing-mode:lr-tb;fill:#000000;fill-opacity:1;fill-rule:nonzero;stroke:none"
         x="0"
         y="0">10</tspan><tspan
         id="tspan14"
         style="font-variant:normal;font-weight:normal;font-size:7px;font-family:'DejaVu Sans';writing-mode:lr-tb;fill:#000000;fill-opacity:1;fill-rule:nonzero;stroke:none"
         x="18.685547"
         y="-3.828125">6</tspan></text>
    <path
       d="M 106,355 H 732 V 272 H 106 Z"
       style="fill:#000000;fill-opacity:1;fill-rule:nonzero;stroke:none"
       transform="matrix(0.00933333,0,0,-0.00933333,44.922917,347.2758)"
       opacity="1"
       id="path14" />
    <path
       id="path15"
       d="m 51.871875,90.305917 h -3.5"
       style="fill:#000000;fill-opacity:1;fill-rule:nonzero;stroke:#000000;stroke-width:0.8;stroke-linecap:butt;stroke-linejoin:round;stroke-miterlimit:10;stroke-dasharray:none;stroke-opacity:1"
       transform="matrix(1.3333333,0,0,-1.3333333,0,414.47433)" />
    <text
       id="text15"
       xml:space="preserve"
       transform="matrix(1.3333333,0,0,1.3333333,27.829167,299.26228)"><tspan
         id="tspan15"
         style="font-variant:normal;font-weight:normal;font-size:10px;font-family:'DejaVu Sans';writing-mode:lr-tb;fill:#000000;fill-opacity:1;fill-rule:nonzero;stroke:none"
         x="0"
         y="0">10</tspan><tspan
         id="tspan16"
         style="font-variant:normal;font-weight:normal;font-size:7px;font-family:'DejaVu Sans';writing-mode:lr-tb;fill:#000000;fill-opacity:1;fill-rule:nonzero;stroke:none"
         x="18.685547"
         y="-3.828125">5</tspan></text>
    <path
       d="M 106,355 H 732 V 272 H 106 Z"
       style="fill:#000000;fill-opacity:1;fill-rule:nonzero;stroke:none"
       transform="matrix(0.00933333,0,0,-0.00933333,44.922917,294.15811)"
       opacity="1"
       id="path16" />
    <path
       id="path17"
       d="m 51.871875,130.55668 h -3.5"
       style="fill:#000000;fill-opacity:1;fill-rule:nonzero;stroke:#000000;stroke-width:0.8;stroke-linecap:butt;stroke-linejoin:round;stroke-miterlimit:10;stroke-dasharray:none;stroke-opacity:1"
       transform="matrix(1.3333333,0,0,-1.3333333,0,414.47433)" />
    <text
       id="text17"
       xml:space="preserve"
       transform="matrix(1.3333333,0,0,1.3333333,27.829167,245.59459)"><tspan
         id="tspan17"
         style="font-variant:normal;font-weight:normal;font-size:10px;font-family:'DejaVu Sans';writing-mode:lr-tb;fill:#000000;fill-opacity:1;fill-rule:nonzero;stroke:none"
         x="0"
         y="0">10</tspan><tspan
         id="tspan18"
         style="font-variant:normal;font-weight:normal;font-size:7px;font-family:'DejaVu Sans';writing-mode:lr-tb;fill:#000000;fill-opacity:1;fill-rule:nonzero;stroke:none"
         x="18.685547"
         y="-3.828125">4</tspan></text>
    <path
       d="M 106,355 H 732 V 272 H 106 Z"
       style="fill:#000000;fill-opacity:1;fill-rule:nonzero;stroke:none"
       transform="matrix(0.00933333,0,0,-0.00933333,44.922917,240.49042)"
       opacity="1"
       id="path18" />
    <path
       id="path19"
       d="m 51.871875,170.80745 h -3.5"
       style="fill:#000000;fill-opacity:1;fill-rule:nonzero;stroke:#000000;stroke-width:0.8;stroke-linecap:butt;stroke-linejoin:round;stroke-miterlimit:10;stroke-dasharray:none;stroke-opacity:1"
       transform="matrix(1.3333333,0,0,-1.3333333,0,414.47433)" />
    <text
       id="text19"
       xml:space="preserve"
       transform="matrix(1.3333333,0,0,1.3333333,27.829167,191.3769)"><tspan
         id="tspan19"
         style="font-variant:normal;font-weight:normal;font-size:10px;font-family:'DejaVu Sans';writing-mode:lr-tb;fill:#000000;fill-opacity:1;fill-rule:nonzero;stroke:none"
         x="0"
         y="0">10</tspan><tspan
         id="tspan20"
         style="font-variant:normal;font-weight:normal;font-size:7px;font-family:'DejaVu Sans';writing-mode:lr-tb;fill:#000000;fill-opacity:1;fill-rule:nonzero;stroke:none"
         x="18.685547"
         y="-3.828125">3</tspan></text>
    <path
       d="M 106,355 H 732 V 272 H 106 Z"
       style="fill:#000000;fill-opacity:1;fill-rule:nonzero;stroke:none"
       transform="matrix(0.00933333,0,0,-0.00933333,44.922917,186.27273)"
       opacity="1"
       id="path20" />
    <path
       id="path21"
       d="m 51.871875,211.05822 h -3.5"
       style="fill:#000000;fill-opacity:1;fill-rule:nonzero;stroke:#000000;stroke-width:0.8;stroke-linecap:butt;stroke-linejoin:round;stroke-miterlimit:10;stroke-dasharray:none;stroke-opacity:1"
       transform="matrix(1.3333333,0,0,-1.3333333,0,414.47433)" />
    <text
       id="text21"
       xml:space="preserve"
       transform="matrix(1.3333333,0,0,1.3333333,27.829167,137.70921)"><tspan
         id="tspan21"
         style="font-variant:normal;font-weight:normal;font-size:10px;font-family:'DejaVu Sans';writing-mode:lr-tb;fill:#000000;fill-opacity:1;fill-rule:nonzero;stroke:none"
         x="0"
         y="0">10</tspan><tspan
         id="tspan22"
         style="font-variant:normal;font-weight:normal;font-size:7px;font-family:'DejaVu Sans';writing-mode:lr-tb;fill:#000000;fill-opacity:1;fill-rule:nonzero;stroke:none"
         x="18.685547"
         y="-3.828125">2</tspan></text>
    <path
       d="M 106,355 H 732 V 272 H 106 Z"
       style="fill:#000000;fill-opacity:1;fill-rule:nonzero;stroke:none"
       transform="matrix(0.00933333,0,0,-0.00933333,44.922917,132.60504)"
       opacity="1"
       id="path22" />
    <path
       id="path23"
       d="m 51.871875,251.30898 h -3.5"
       style="fill:#000000;fill-opacity:1;fill-rule:nonzero;stroke:#000000;stroke-width:0.8;stroke-linecap:butt;stroke-linejoin:round;stroke-miterlimit:10;stroke-dasharray:none;stroke-opacity:1"
       transform="matrix(1.3333333,0,0,-1.3333333,0,414.47433)" />
    <text
       id="text23"
       xml:space="preserve"
       transform="matrix(1.3333333,0,0,1.3333333,27.829167,84.591522)"><tspan
         id="tspan23"
         style="font-variant:normal;font-weight:normal;font-size:10px;font-family:'DejaVu Sans';writing-mode:lr-tb;fill:#000000;fill-opacity:1;fill-rule:nonzero;stroke:none"
         x="0"
         y="0">10</tspan><tspan
         id="tspan24"
         style="font-variant:normal;font-weight:normal;font-size:7px;font-family:'DejaVu Sans';writing-mode:lr-tb;fill:#000000;fill-opacity:1;fill-rule:nonzero;stroke:none"
         x="18.685547"
         y="-3.828125">1</tspan></text>
    <path
       d="M 106,355 H 732 V 272 H 106 Z"
       style="fill:#000000;fill-opacity:1;fill-rule:nonzero;stroke:none"
       transform="matrix(0.00933333,0,0,-0.00933333,44.922917,79.487355)"
       opacity="1"
       id="path24" />
    <path
       id="path25"
       d="m 51.871875,291.55975 h -3.5"
       style="fill:#000000;fill-opacity:1;fill-rule:nonzero;stroke:#000000;stroke-width:0.8;stroke-linecap:butt;stroke-linejoin:round;stroke-miterlimit:10;stroke-dasharray:none;stroke-opacity:1"
       transform="matrix(1.3333333,0,0,-1.3333333,0,414.47433)" />
    <text
       id="text25"
       xml:space="preserve"
       transform="matrix(1.3333333,0,0,1.3333333,35.829167,30.373833)"><tspan
         id="tspan25"
         style="font-variant:normal;font-weight:normal;font-size:10px;font-family:'DejaVu Sans';writing-mode:lr-tb;fill:#000000;fill-opacity:1;fill-rule:nonzero;stroke:none"
         x="0"
         y="0">10</tspan><tspan
         id="tspan26"
         style="font-variant:normal;font-weight:normal;font-size:7px;font-family:'DejaVu Sans';writing-mode:lr-tb;fill:#000000;fill-opacity:1;fill-rule:nonzero;stroke:none"
         x="12.820312"
         y="-3.828125">0</tspan></text>
    <path
       id="path26"
       d="m 51.871875,37.938462 h -2"
       style="fill:#000000;fill-opacity:1;fill-rule:nonzero;stroke:#000000;stroke-width:0.6;stroke-linecap:butt;stroke-linejoin:round;stroke-miterlimit:10;stroke-dasharray:none;stroke-opacity:1"
       transform="matrix(1.3333333,0,0,-1.3333333,0,414.47433)" />
    <path
       id="path27"
       d="m 51.871875,41.125568 h -2"
       style="fill:#000000;fill-opacity:1;fill-rule:nonzero;stroke:#000000;stroke-width:0.6;stroke-linecap:butt;stroke-linejoin:round;stroke-miterlimit:10;stroke-dasharray:none;stroke-opacity:1"
       transform="matrix(1.3333333,0,0,-1.3333333,0,414.47433)" />
    <path
       id="path28"
       d="m 51.871875,43.820228 h -2"
       style="fill:#000000;fill-opacity:1;fill-rule:nonzero;stroke:#000000;stroke-width:0.6;stroke-linecap:butt;stroke-linejoin:round;stroke-miterlimit:10;stroke-dasharray:none;stroke-opacity:1"
       transform="matrix(1.3333333,0,0,-1.3333333,0,414.47433)" />
    <path
       id="path29"
       d="m 51.871875,46.154448 h -2"
       style="fill:#000000;fill-opacity:1;fill-rule:nonzero;stroke:#000000;stroke-width:0.6;stroke-linecap:butt;stroke-linejoin:round;stroke-miterlimit:10;stroke-dasharray:none;stroke-opacity:1"
       transform="matrix(1.3333333,0,0,-1.3333333,0,414.47433)" />
    <path
       id="path30"
       d="m 51.871875,48.213376 h -2"
       style="fill:#000000;fill-opacity:1;fill-rule:nonzero;stroke:#000000;stroke-width:0.6;stroke-linecap:butt;stroke-linejoin:round;stroke-miterlimit:10;stroke-dasharray:none;stroke-opacity:1"
       transform="matrix(1.3333333,0,0,-1.3333333,0,414.47433)" />
    <path
       id="path31"
       d="m 51.871875,62.171839 h -2"
       style="fill:#000000;fill-opacity:1;fill-rule:nonzero;stroke:#000000;stroke-width:0.6;stroke-linecap:butt;stroke-linejoin:round;stroke-miterlimit:10;stroke-dasharray:none;stroke-opacity:1"
       transform="matrix(1.3333333,0,0,-1.3333333,0,414.47433)" />
    <path
       id="path32"
       d="m 51.871875,69.259647 h -2"
       style="fill:#000000;fill-opacity:1;fill-rule:nonzero;stroke:#000000;stroke-width:0.6;stroke-linecap:butt;stroke-linejoin:round;stroke-miterlimit:10;stroke-dasharray:none;stroke-opacity:1"
       transform="matrix(1.3333333,0,0,-1.3333333,0,414.47433)" />
    <path
       id="path33"
       d="m 51.871875,74.288527 h -2"
       style="fill:#000000;fill-opacity:1;fill-rule:nonzero;stroke:#000000;stroke-width:0.6;stroke-linecap:butt;stroke-linejoin:round;stroke-miterlimit:10;stroke-dasharray:none;stroke-opacity:1"
       transform="matrix(1.3333333,0,0,-1.3333333,0,414.47433)" />
    <path
       id="path34"
       d="m 51.871875,78.189229 h -2"
       style="fill:#000000;fill-opacity:1;fill-rule:nonzero;stroke:#000000;stroke-width:0.6;stroke-linecap:butt;stroke-linejoin:round;stroke-miterlimit:10;stroke-dasharray:none;stroke-opacity:1"
       transform="matrix(1.3333333,0,0,-1.3333333,0,414.47433)" />
    <path
       id="path35"
       d="m 51.871875,81.376335 h -2"
       style="fill:#000000;fill-opacity:1;fill-rule:nonzero;stroke:#000000;stroke-width:0.6;stroke-linecap:butt;stroke-linejoin:round;stroke-miterlimit:10;stroke-dasharray:none;stroke-opacity:1"
       transform="matrix(1.3333333,0,0,-1.3333333,0,414.47433)" />
    <path
       id="path36"
       d="m 51.871875,84.070994 h -2"
       style="fill:#000000;fill-opacity:1;fill-rule:nonzero;stroke:#000000;stroke-width:0.6;stroke-linecap:butt;stroke-linejoin:round;stroke-miterlimit:10;stroke-dasharray:none;stroke-opacity:1"
       transform="matrix(1.3333333,0,0,-1.3333333,0,414.47433)" />
    <path
       id="path37"
       d="m 51.871875,86.405215 h -2"
       style="fill:#000000;fill-opacity:1;fill-rule:nonzero;stroke:#000000;stroke-width:0.6;stroke-linecap:butt;stroke-linejoin:round;stroke-miterlimit:10;stroke-dasharray:none;stroke-opacity:1"
       transform="matrix(1.3333333,0,0,-1.3333333,0,414.47433)" />
    <path
       id="path38"
       d="m 51.871875,88.464143 h -2"
       style="fill:#000000;fill-opacity:1;fill-rule:nonzero;stroke:#000000;stroke-width:0.6;stroke-linecap:butt;stroke-linejoin:round;stroke-miterlimit:10;stroke-dasharray:none;stroke-opacity:1"
       transform="matrix(1.3333333,0,0,-1.3333333,0,414.47433)" />
    <path
       id="path39"
       d="m 51.871875,102.42261 h -2"
       style="fill:#000000;fill-opacity:1;fill-rule:nonzero;stroke:#000000;stroke-width:0.6;stroke-linecap:butt;stroke-linejoin:round;stroke-miterlimit:10;stroke-dasharray:none;stroke-opacity:1"
       transform="matrix(1.3333333,0,0,-1.3333333,0,414.47433)" />
    <path
       id="path40"
       d="m 51.871875,109.51041 h -2"
       style="fill:#000000;fill-opacity:1;fill-rule:nonzero;stroke:#000000;stroke-width:0.6;stroke-linecap:butt;stroke-linejoin:round;stroke-miterlimit:10;stroke-dasharray:none;stroke-opacity:1"
       transform="matrix(1.3333333,0,0,-1.3333333,0,414.47433)" />
    <path
       id="path41"
       d="m 51.871875,114.53929 h -2"
       style="fill:#000000;fill-opacity:1;fill-rule:nonzero;stroke:#000000;stroke-width:0.6;stroke-linecap:butt;stroke-linejoin:round;stroke-miterlimit:10;stroke-dasharray:none;stroke-opacity:1"
       transform="matrix(1.3333333,0,0,-1.3333333,0,414.47433)" />
    <path
       id="path42"
       d="m 51.871875,118.44 h -2"
       style="fill:#000000;fill-opacity:1;fill-rule:nonzero;stroke:#000000;stroke-width:0.6;stroke-linecap:butt;stroke-linejoin:round;stroke-miterlimit:10;stroke-dasharray:none;stroke-opacity:1"
       transform="matrix(1.3333333,0,0,-1.3333333,0,414.47433)" />
    <path
       id="path43"
       d="m 51.871875,121.6271 h -2"
       style="fill:#000000;fill-opacity:1;fill-rule:nonzero;stroke:#000000;stroke-width:0.6;stroke-linecap:butt;stroke-linejoin:round;stroke-miterlimit:10;stroke-dasharray:none;stroke-opacity:1"
       transform="matrix(1.3333333,0,0,-1.3333333,0,414.47433)" />
    <path
       id="path44"
       d="m 51.871875,124.32176 h -2"
       style="fill:#000000;fill-opacity:1;fill-rule:nonzero;stroke:#000000;stroke-width:0.6;stroke-linecap:butt;stroke-linejoin:round;stroke-miterlimit:10;stroke-dasharray:none;stroke-opacity:1"
       transform="matrix(1.3333333,0,0,-1.3333333,0,414.47433)" />
    <path
       id="path45"
       d="m 51.871875,126.65598 h -2"
       style="fill:#000000;fill-opacity:1;fill-rule:nonzero;stroke:#000000;stroke-width:0.6;stroke-linecap:butt;stroke-linejoin:round;stroke-miterlimit:10;stroke-dasharray:none;stroke-opacity:1"
       transform="matrix(1.3333333,0,0,-1.3333333,0,414.47433)" />
    <path
       id="path46"
       d="m 51.871875,128.71491 h -2"
       style="fill:#000000;fill-opacity:1;fill-rule:nonzero;stroke:#000000;stroke-width:0.6;stroke-linecap:butt;stroke-linejoin:round;stroke-miterlimit:10;stroke-dasharray:none;stroke-opacity:1"
       transform="matrix(1.3333333,0,0,-1.3333333,0,414.47433)" />
    <path
       id="path47"
       d="m 51.871875,142.67337 h -2"
       style="fill:#000000;fill-opacity:1;fill-rule:nonzero;stroke:#000000;stroke-width:0.6;stroke-linecap:butt;stroke-linejoin:round;stroke-miterlimit:10;stroke-dasharray:none;stroke-opacity:1"
       transform="matrix(1.3333333,0,0,-1.3333333,0,414.47433)" />
    <path
       id="path48"
       d="m 51.871875,149.76118 h -2"
       style="fill:#000000;fill-opacity:1;fill-rule:nonzero;stroke:#000000;stroke-width:0.6;stroke-linecap:butt;stroke-linejoin:round;stroke-miterlimit:10;stroke-dasharray:none;stroke-opacity:1"
       transform="matrix(1.3333333,0,0,-1.3333333,0,414.47433)" />
    <path
       id="path49"
       d="m 51.871875,154.79006 h -2"
       style="fill:#000000;fill-opacity:1;fill-rule:nonzero;stroke:#000000;stroke-width:0.6;stroke-linecap:butt;stroke-linejoin:round;stroke-miterlimit:10;stroke-dasharray:none;stroke-opacity:1"
       transform="matrix(1.3333333,0,0,-1.3333333,0,414.47433)" />
    <path
       id="path50"
       d="m 51.871875,158.69076 h -2"
       style="fill:#000000;fill-opacity:1;fill-rule:nonzero;stroke:#000000;stroke-width:0.6;stroke-linecap:butt;stroke-linejoin:round;stroke-miterlimit:10;stroke-dasharray:none;stroke-opacity:1"
       transform="matrix(1.3333333,0,0,-1.3333333,0,414.47433)" />
    <path
       id="path51"
       d="m 51.871875,161.87787 h -2"
       style="fill:#000000;fill-opacity:1;fill-rule:nonzero;stroke:#000000;stroke-width:0.6;stroke-linecap:butt;stroke-linejoin:round;stroke-miterlimit:10;stroke-dasharray:none;stroke-opacity:1"
       transform="matrix(1.3333333,0,0,-1.3333333,0,414.47433)" />
    <path
       id="path52"
       d="m 51.871875,164.57253 h -2"
       style="fill:#000000;fill-opacity:1;fill-rule:nonzero;stroke:#000000;stroke-width:0.6;stroke-linecap:butt;stroke-linejoin:round;stroke-miterlimit:10;stroke-dasharray:none;stroke-opacity:1"
       transform="matrix(1.3333333,0,0,-1.3333333,0,414.47433)" />
    <path
       id="path53"
       d="m 51.871875,166.90675 h -2"
       style="fill:#000000;fill-opacity:1;fill-rule:nonzero;stroke:#000000;stroke-width:0.6;stroke-linecap:butt;stroke-linejoin:round;stroke-miterlimit:10;stroke-dasharray:none;stroke-opacity:1"
       transform="matrix(1.3333333,0,0,-1.3333333,0,414.47433)" />
    <path
       id="path54"
       d="m 51.871875,168.96568 h -2"
       style="fill:#000000;fill-opacity:1;fill-rule:nonzero;stroke:#000000;stroke-width:0.6;stroke-linecap:butt;stroke-linejoin:round;stroke-miterlimit:10;stroke-dasharray:none;stroke-opacity:1"
       transform="matrix(1.3333333,0,0,-1.3333333,0,414.47433)" />
    <path
       id="path55"
       d="m 51.871875,182.92414 h -2"
       style="fill:#000000;fill-opacity:1;fill-rule:nonzero;stroke:#000000;stroke-width:0.6;stroke-linecap:butt;stroke-linejoin:round;stroke-miterlimit:10;stroke-dasharray:none;stroke-opacity:1"
       transform="matrix(1.3333333,0,0,-1.3333333,0,414.47433)" />
    <path
       id="path56"
       d="m 51.871875,190.01195 h -2"
       style="fill:#000000;fill-opacity:1;fill-rule:nonzero;stroke:#000000;stroke-width:0.6;stroke-linecap:butt;stroke-linejoin:round;stroke-miterlimit:10;stroke-dasharray:none;stroke-opacity:1"
       transform="matrix(1.3333333,0,0,-1.3333333,0,414.47433)" />
    <path
       id="path57"
       d="m 51.871875,195.04083 h -2"
       style="fill:#000000;fill-opacity:1;fill-rule:nonzero;stroke:#000000;stroke-width:0.6;stroke-linecap:butt;stroke-linejoin:round;stroke-miterlimit:10;stroke-dasharray:none;stroke-opacity:1"
       transform="matrix(1.3333333,0,0,-1.3333333,0,414.47433)" />
    <path
       id="path58"
       d="m 51.871875,198.94153 h -2"
       style="fill:#000000;fill-opacity:1;fill-rule:nonzero;stroke:#000000;stroke-width:0.6;stroke-linecap:butt;stroke-linejoin:round;stroke-miterlimit:10;stroke-dasharray:none;stroke-opacity:1"
       transform="matrix(1.3333333,0,0,-1.3333333,0,414.47433)" />
    <path
       id="path59"
       d="m 51.871875,202.12863 h -2"
       style="fill:#000000;fill-opacity:1;fill-rule:nonzero;stroke:#000000;stroke-width:0.6;stroke-linecap:butt;stroke-linejoin:round;stroke-miterlimit:10;stroke-dasharray:none;stroke-opacity:1"
       transform="matrix(1.3333333,0,0,-1.3333333,0,414.47433)" />
    <path
       id="path60"
       d="m 51.871875,204.82329 h -2"
       style="fill:#000000;fill-opacity:1;fill-rule:nonzero;stroke:#000000;stroke-width:0.6;stroke-linecap:butt;stroke-linejoin:round;stroke-miterlimit:10;stroke-dasharray:none;stroke-opacity:1"
       transform="matrix(1.3333333,0,0,-1.3333333,0,414.47433)" />
    <path
       id="path61"
       d="m 51.871875,207.15751 h -2"
       style="fill:#000000;fill-opacity:1;fill-rule:nonzero;stroke:#000000;stroke-width:0.6;stroke-linecap:butt;stroke-linejoin:round;stroke-miterlimit:10;stroke-dasharray:none;stroke-opacity:1"
       transform="matrix(1.3333333,0,0,-1.3333333,0,414.47433)" />
    <path
       id="path62"
       d="m 51.871875,209.21644 h -2"
       style="fill:#000000;fill-opacity:1;fill-rule:nonzero;stroke:#000000;stroke-width:0.6;stroke-linecap:butt;stroke-linejoin:round;stroke-miterlimit:10;stroke-dasharray:none;stroke-opacity:1"
       transform="matrix(1.3333333,0,0,-1.3333333,0,414.47433)" />
    <path
       id="path63"
       d="m 51.871875,223.1749 h -2"
       style="fill:#000000;fill-opacity:1;fill-rule:nonzero;stroke:#000000;stroke-width:0.6;stroke-linecap:butt;stroke-linejoin:round;stroke-miterlimit:10;stroke-dasharray:none;stroke-opacity:1"
       transform="matrix(1.3333333,0,0,-1.3333333,0,414.47433)" />
    <path
       id="path64"
       d="m 51.871875,230.26271 h -2"
       style="fill:#000000;fill-opacity:1;fill-rule:nonzero;stroke:#000000;stroke-width:0.6;stroke-linecap:butt;stroke-linejoin:round;stroke-miterlimit:10;stroke-dasharray:none;stroke-opacity:1"
       transform="matrix(1.3333333,0,0,-1.3333333,0,414.47433)" />
    <path
       id="path65"
       d="m 51.871875,235.29159 h -2"
       style="fill:#000000;fill-opacity:1;fill-rule:nonzero;stroke:#000000;stroke-width:0.6;stroke-linecap:butt;stroke-linejoin:round;stroke-miterlimit:10;stroke-dasharray:none;stroke-opacity:1"
       transform="matrix(1.3333333,0,0,-1.3333333,0,414.47433)" />
    <path
       id="path66"
       d="m 51.871875,239.19229 h -2"
       style="fill:#000000;fill-opacity:1;fill-rule:nonzero;stroke:#000000;stroke-width:0.6;stroke-linecap:butt;stroke-linejoin:round;stroke-miterlimit:10;stroke-dasharray:none;stroke-opacity:1"
       transform="matrix(1.3333333,0,0,-1.3333333,0,414.47433)" />
    <path
       id="path67"
       d="m 51.871875,242.3794 h -2"
       style="fill:#000000;fill-opacity:1;fill-rule:nonzero;stroke:#000000;stroke-width:0.6;stroke-linecap:butt;stroke-linejoin:round;stroke-miterlimit:10;stroke-dasharray:none;stroke-opacity:1"
       transform="matrix(1.3333333,0,0,-1.3333333,0,414.47433)" />
    <path
       id="path68"
       d="m 51.871875,245.07406 h -2"
       style="fill:#000000;fill-opacity:1;fill-rule:nonzero;stroke:#000000;stroke-width:0.6;stroke-linecap:butt;stroke-linejoin:round;stroke-miterlimit:10;stroke-dasharray:none;stroke-opacity:1"
       transform="matrix(1.3333333,0,0,-1.3333333,0,414.47433)" />
    <path
       id="path69"
       d="m 51.871875,247.40828 h -2"
       style="fill:#000000;fill-opacity:1;fill-rule:nonzero;stroke:#000000;stroke-width:0.6;stroke-linecap:butt;stroke-linejoin:round;stroke-miterlimit:10;stroke-dasharray:none;stroke-opacity:1"
       transform="matrix(1.3333333,0,0,-1.3333333,0,414.47433)" />
    <path
       id="path70"
       d="m 51.871875,249.46721 h -2"
       style="fill:#000000;fill-opacity:1;fill-rule:nonzero;stroke:#000000;stroke-width:0.6;stroke-linecap:butt;stroke-linejoin:round;stroke-miterlimit:10;stroke-dasharray:none;stroke-opacity:1"
       transform="matrix(1.3333333,0,0,-1.3333333,0,414.47433)" />
    <path
       id="path71"
       d="m 51.871875,263.42567 h -2"
       style="fill:#000000;fill-opacity:1;fill-rule:nonzero;stroke:#000000;stroke-width:0.6;stroke-linecap:butt;stroke-linejoin:round;stroke-miterlimit:10;stroke-dasharray:none;stroke-opacity:1"
       transform="matrix(1.3333333,0,0,-1.3333333,0,414.47433)" />
    <path
       id="path72"
       d="m 51.871875,270.51348 h -2"
       style="fill:#000000;fill-opacity:1;fill-rule:nonzero;stroke:#000000;stroke-width:0.6;stroke-linecap:butt;stroke-linejoin:round;stroke-miterlimit:10;stroke-dasharray:none;stroke-opacity:1"
       transform="matrix(1.3333333,0,0,-1.3333333,0,414.47433)" />
    <path
       id="path73"
       d="m 51.871875,275.54236 h -2"
       style="fill:#000000;fill-opacity:1;fill-rule:nonzero;stroke:#000000;stroke-width:0.6;stroke-linecap:butt;stroke-linejoin:round;stroke-miterlimit:10;stroke-dasharray:none;stroke-opacity:1"
       transform="matrix(1.3333333,0,0,-1.3333333,0,414.47433)" />
    <path
       id="path74"
       d="m 51.871875,279.44306 h -2"
       style="fill:#000000;fill-opacity:1;fill-rule:nonzero;stroke:#000000;stroke-width:0.6;stroke-linecap:butt;stroke-linejoin:round;stroke-miterlimit:10;stroke-dasharray:none;stroke-opacity:1"
       transform="matrix(1.3333333,0,0,-1.3333333,0,414.47433)" />
    <path
       id="path75"
       d="m 51.871875,282.63017 h -2"
       style="fill:#000000;fill-opacity:1;fill-rule:nonzero;stroke:#000000;stroke-width:0.6;stroke-linecap:butt;stroke-linejoin:round;stroke-miterlimit:10;stroke-dasharray:none;stroke-opacity:1"
       transform="matrix(1.3333333,0,0,-1.3333333,0,414.47433)" />
    <path
       id="path76"
       d="m 51.871875,285.32483 h -2"
       style="fill:#000000;fill-opacity:1;fill-rule:nonzero;stroke:#000000;stroke-width:0.6;stroke-linecap:butt;stroke-linejoin:round;stroke-miterlimit:10;stroke-dasharray:none;stroke-opacity:1"
       transform="matrix(1.3333333,0,0,-1.3333333,0,414.47433)" />
    <path
       id="path77"
       d="m 51.871875,287.65905 h -2"
       style="fill:#000000;fill-opacity:1;fill-rule:nonzero;stroke:#000000;stroke-width:0.6;stroke-linecap:butt;stroke-linejoin:round;stroke-miterlimit:10;stroke-dasharray:none;stroke-opacity:1"
       transform="matrix(1.3333333,0,0,-1.3333333,0,414.47433)" />
    <path
       id="path78"
       d="m 51.871875,289.71798 h -2"
       style="fill:#000000;fill-opacity:1;fill-rule:nonzero;stroke:#000000;stroke-width:0.6;stroke-linecap:butt;stroke-linejoin:round;stroke-miterlimit:10;stroke-dasharray:none;stroke-opacity:1"
       transform="matrix(1.3333333,0,0,-1.3333333,0,414.47433)" />
    <text
       id="text78"
       xml:space="preserve"
       transform="matrix(0,-1.3333333,1.3333333,0,19.725,326.29967)"><tspan
         id="tspan78"
         style="font-variant:normal;font-weight:normal;font-size:10px;font-family:'DejaVu Sans';writing-mode:lr-tb;fill:#000000;fill-opacity:1;fill-rule:nonzero;stroke:none"
         x="0"
         dx="0 0 0 -0.171875"
         y="0">Normalized photon count (arbitrary units)</tspan></text>
    <path
       id="path79"
       d="m 57.093387,-1 0.0059,292.55975 1.637146,-63.72009 1.637145,-7.97053 1.637145,-4.88101 1.637145,-3.32178 1.637145,-3.03118 1.637145,-2.01584 1.637145,-2.284 1.637145,-1.74979 1.637146,-1.45588 3.27429,-3.58871 1.637145,-4.93298 1.637145,-3.69469 1.637145,-2.96434 1.637145,-3.59823 1.637145,-1.96766 1.637146,-2.25123 1.637145,-1.97073 1.637145,-1.71517 1.637145,-3.08482 1.637145,-1.42955 1.637145,-0.9591 1.637145,-3.10388 1.637145,0.46916 1.637146,-3.02474 1.637145,0.0262 3.274289,-3.81586 1.63714,-0.3286 1.63715,-2.33896 3.27429,-0.19063 1.63715,-2.59908 1.63714,-1.10151 1.63715,0.0473 1.63714,-1.78936 1.63715,-0.74852 1.63714,-2.90533 1.63715,-0.32554 1.63714,0.89665 1.63715,-4.1364 1.63714,0.9243 1.63715,0.66251 1.63714,-1.82573 1.63715,0.08 1.63714,-1.76214 1.63715,-2.87213 1.63714,1.10866 1.63715,-4.0478 1.63714,1.86637 1.63715,1.4841 1.63714,-3.10599 1.63715,-2.47351 1.63714,1.98107 1.63715,-1.70359 1.63714,-2.04173 1.63715,0.75686 1.63714,-5.12792 1.63715,2.40855 1.63714,-5.43746 1.63715,3.02891 h 1.63714 l 1.63715,-0.19978 1.63714,-2.82913 1.63715,2.82913 1.63714,-0.82278 1.63715,-1.31166 1.63714,1.52102 1.63715,-9.42203 1.63714,5.20635 1.63715,-4.16759 1.63714,4.68944 1.63715,-1.05976 1.63715,-2.96995 1.63714,0.94513 1.63715,-0.62438 1.63714,-4.30257 1.63715,3.32209 1.63714,-2.14317 1.63715,0.37594 1.63714,-0.76015 3.27429,0.76015 1.63715,-6.18187 1.63714,2.46615 1.63715,-0.94513 1.63714,-3.77973 1.63715,4.72486 1.63714,-4.13224 1.63715,-0.59262 1.63714,2.25871 1.63715,-2.25871 1.63714,2.25871 1.63715,-4.16759 1.63714,1.29546 1.63715,-3.43863 h 1.63714 l 1.63715,0.74397 1.63714,-0.74397 1.63715,-1.59025 1.63714,-2.69466 h 1.63715 l 1.63714,1.84178 1.63715,1.66608 h 1.63714 l 1.63715,-5.566788 1.63714,-1.128177 1.63715,7.472015 1.63714,0.74397 1.63715,-4.08375 1.63715,-0.94513 1.63714,1.84178 1.63714,-7.530386 1.63715,2.501501 h 1.63715 l 1.63714,5.881765 1.63715,-5.881765 1.63714,-7.087808 1.63715,7.087808 1.63714,-1.206043 1.63715,1.206043 1.63714,-5.421721 1.63715,-1.666087 1.63714,7.087808 1.63715,-8.929582 1.63714,7.723539 1.63715,-4.215678 1.63714,1.521018 1.63715,-9.422028 1.63714,-14.811348 1.63715,19.204497 1.63714,-4.393149 1.63715,4.393149 1.63714,-2.058929 1.63715,5.56679 1.63714,-10.59567 1.63715,2.69466 1.63714,2.33422 1.63715,-2.33422 1.63714,2.33422 1.63715,3.900703 1.63714,-12.116689 1.63715,3.187106 1.63714,8.929583 1.63715,-8.929583 1.63714,7.087809 1.63715,-14.175617 1.63714,3.900702 h 1.63715 l 1.63714,-3.900702 1.63715,7.087808 h 1.63714 L 305.94875,-1 m 3.26787,0 0.003,74.873126 1.63714,-5.02888 1.63715,5.02888 1.63714,3.900702 h 1.63715 l 1.63714,-16.01739 1.63715,12.116688 h 1.63714 l 1.63715,-12.116688 1.63714,7.087808 1.63715,-19.204496 1.63714,12.116688 h 1.63715 l 1.63714,12.116688 h 1.63715 l 1.63714,-12.116688 h 1.63715 l 1.63714,21.899156 1.63715,-9.782468 1.63714,-12.116688 h 4.91144 l 1.63714,16.01739 1.63715,-8.929582 h 1.63714 l 1.63715,14.811348 1.63714,-34.015844 1.63715,31.321184 h 1.63714 l 1.63715,-7.087808 1.63714,-12.116688 1.63715,7.087808 L 361.61119,-1 m 3.26857,0 0.003,69.844246 1.63714,8.929582 L 366.52299,-1 m 3.26784,0 0.003,78.773828 1.63715,-3.900702 L 371.43426,-1 m 3.26866,0 0.003,62.756438 1.63715,-12.116688 1.63714,12.116688 h 1.63715 l 1.63714,16.01739 1.63715,-16.01739 1.63714,-12.116688 1.63715,19.204496 L 386.16836,-1 m 3.26936,0 0.002,50.63975 1.63714,12.116688 L 391.07951,-1 m 3.26916,0 0.003,62.756438 1.63715,-12.116688 h 4.91143 L 402.5374,61.756438 404.1741,49.63975 404.17617,-1 m 3.27015,0 0.002,50.63975 L 407.45046,-1 m 3.27015,0 0.002,50.63975 L 410.72475,-1 m 3.26966,0 0.003,62.756438 L 413.99954,-1 m 4.9068,0 0.002,50.63975 h 4.91143 l 1.63715,19.204496 1.27395,-5.515394 v 0"
       style="fill:none;stroke:#1f77b4;stroke-width:1.5;stroke-linecap:square;stroke-linejoin:round;stroke-miterlimit:10;stroke-dasharray:none;stroke-opacity:1"
       transform="matrix(1.3333333,0,0,-1.3333333,0,414.47433)"
       clip-path="url(#clipPath80)" />
    <path
       id="path81"
       d="m 57.011773,-1 0.0054,292.55975 1.472723,-59.40376 1.472723,-8.57855 1.472723,-4.69121 1.472723,-3.40118 1.472723,-3.02769 1.472723,-2.23531 1.472722,-1.75945 1.472723,-2.14415 1.472723,-1.3491 2.945446,-3.05752 1.472723,-0.84612 1.472723,-3.92031 5.890891,-10.26879 1.472723,-1.16276 1.472723,-2.35613 1.472723,-1.47693 1.472723,-3.03803 1.472722,-0.24622 1.472723,-2.86074 1.472723,-1.16438 1.472723,-0.29228 1.472723,-2.45448 1.472723,-0.20998 1.472723,-2.19146 1.472722,-1.46668 1.472724,-0.29545 2.94545,-3.38689 1.47272,-0.65509 1.47272,-2.65299 1.47273,1.57758 1.47272,-0.31337 1.47272,-1.41049 1.47272,-2.86689 1.47273,-1.13202 1.47272,-1.95155 1.47272,-0.20769 1.47273,0.61582 1.47272,0.39882 1.47272,-1.9443 1.47272,-3.39398 1.47273,2.87213 1.47272,-1.50039 1.47272,0.40749 1.47273,-2.5077 1.47272,-1.15299 1.47272,-3.50786 1.47272,2.5903 1.47273,-3.08275 1.47272,4.29576 1.47272,-5.1924 1.47273,-0.26486 1.47272,-2.27713 1.47272,2.27713 1.47272,0.3958 1.47273,-0.80078 1.47272,-1.42198 1.47272,-3.78995 1.47273,0.89665 1.47272,-1.84178 1.47272,-0.99917 1.47272,-1.50233 1.47273,-0.45407 1.47272,0.45407 1.47272,0.87422 1.47273,-1.09978 1.47272,-0.22851 1.47272,0.89664 1.47272,-1.36282 1.47273,-1.99997 1.47272,2.23462 1.47272,-4.49333 1.47273,2.25871 1.47272,-5.93482 1.47272,4.55768 1.47272,-6.11254 1.47273,8.76621 1.47272,-6.12972 1.47272,-2.23462 1.47273,3.2532 1.47272,-2.10021 1.47272,3.06269 1.47272,-1.98106 1.47273,-2.23462 1.47272,-1.66608 1.47272,-2.84095 1.47273,2.39837 1.47272,-0.92024 1.47272,-1.47813 1.47272,2.39837 1.47273,-1.3992 1.47272,-0.99917 1.47272,-0.52185 1.47273,4.62701 1.47272,-7.49914 1.47272,6.66657 1.47272,-8.64763 1.47273,4.85319 1.47272,-2.25871 1.47272,-3.30808 1.47273,3.30808 1.47272,-2.59448 2.94544,-3.04782 1.47273,-4.75358 1.47272,7.0878 1.47272,2.05893 1.47273,-2.05893 1.47272,-5.02888 1.47272,-8.608822 1.47272,11.303482 1.47273,-9.78246 1.47272,6.08864 1.47272,0.99916 1.47273,-0.99916 1.47272,3.69382 1.47272,-0.85288 1.47272,-21.046272 1.47273,21.046272 1.47272,-1.84178 1.47272,-3.1871 1.47273,2.18794 1.47272,-4.68944 1.47272,-6.428084 1.47272,-2.058928 1.47273,7.087812 1.47272,-1.521022 1.47272,-7.90101 h 1.47273 l 1.47272,19.204492 1.47272,-16.870272 1.47272,5.56679 1.47273,-3.507862 1.47272,8.929584 1.47272,-10.988512 1.47273,2.058928 1.47272,5.028884 1.47272,-12.116692 1.47272,10.59567 1.47273,5.421722 1.47272,-23.1052 1.47272,16.01739 1.47273,-16.01739 1.47272,20.6037 2.94544,-2.920222 1.47273,-1.666088 1.47272,-1.841774 h 2.94545 l 1.47272,-4.393148 1.47272,-2.69466 1.47273,-3.187106 1.47272,3.187106 1.47272,5.02888 1.47272,-5.02888 h 1.47273 l 1.47272,2.69466 1.47272,-14.811348 1.47273,12.116688 1.47272,-12.116688 1.47272,8.929582 1.47272,5.881766 h 1.47273 l 1.47272,-14.811348 1.47272,14.811348 1.47273,7.90101 1.47272,-22.712358 1.47272,14.811348 1.47272,-2.69466 1.47273,-3.187106 1.47272,-16.01739 1.47272,19.204496 h 1.47273 l 1.47272,2.69466 1.47272,-5.881766 1.47272,-8.929582 1.47273,5.02888 L 325.05575,-1 m 2.93976,0 0.003,71.189672 1.47273,12.116688 h 1.47272 l 1.47272,-12.116688 1.47272,12.116688 1.47273,-12.116688 h 2.94544 l 1.47273,16.01739 1.47272,-28.134078 1.47272,24.233376 1.47272,7.087808 L 344.20141,-1 m 2.93906,0 0.003,83.30636 1.47272,-12.116688 1.47273,7.087808 1.47272,-7.087808 h 1.47272 l 1.47272,12.116688 1.47273,-12.116688 1.47272,7.087808 1.47272,-7.087808 1.47273,12.116688 1.47272,-5.02888 1.47272,8.929582 1.47272,-28.134078 h 1.47273 l 1.47272,12.116688 h 1.47272 L 370.70704,77.27748 370.70997,-1 m 2.93995,0 0.003,71.189672 1.47273,7.087808 h 1.47272 l 1.47272,5.02888 1.47272,-24.233376 1.47273,19.204496 1.47272,-7.087808 L 382.4915,-1 m 2.94065,0 0.002,59.072984 1.47273,19.204496 h 1.47272 l 1.47272,-19.204496 h 1.47273 l 1.47272,19.204496 1.47272,-7.087808 h 1.47272 L 397.21594,77.27748 397.21899,-1 m 2.94039,0 0.002,59.072984 L 400.16373,-1 m 2.9411,0 0.002,59.072984 h 1.47272 l 1.47273,19.204496 h 1.47272 l 1.47272,-19.204496 1.47272,12.116688 1.47273,-12.116688 L 411.94551,-1 m 2.9411,0 0.002,59.072984 1.47272,19.204496 1.47273,-7.087808 L 417.83685,-1 m 2.9402,0 0.003,71.189672 L 422.2524,58.072984 422.25457,-1 m 2.9411,0 0.002,59.072984 h 1.5331 v 0"
       style="fill:none;stroke:#ff7f0e;stroke-width:1.5;stroke-linecap:square;stroke-linejoin:round;stroke-miterlimit:10;stroke-dasharray:none;stroke-opacity:1"
       transform="matrix(1.3333333,0,0,-1.3333333,0,414.47433)"
       clip-path="url(#clipPath80)" />
    <path
       id="path82"
       d="m 57.131832,-1 0.0062,292.55975 1.7146,-45.79508 1.714599,-8.94751 1.714599,-4.55638 1.714599,-3.72269 3.429198,-4.78042 1.714599,-1.60176 1.714599,-2.49132 1.714599,-1.55344 1.714599,-0.90777 1.714599,-1.2887 1.714599,-3.28707 6.858397,-8.94989 1.714599,-2.00344 1.714599,-1.595 1.714599,-2.56766 1.714599,-0.75734 1.714599,-0.63433 1.714599,-2.09812 1.714599,-1.86141 1.714599,-2.1389 1.7146,-0.7657 1.7146,-1.23091 1.7146,-1.52667 1.7146,-1.82293 1.7146,-0.80961 1.7146,-1.69769 1.7146,0.0434 1.71459,-1.68344 1.7146,0.23719 1.7146,-2.42195 1.7146,-2.00489 1.7146,-0.61776 h 1.7146 l 3.4292,-4.25001 1.7146,1.23809 1.7146,-0.92024 1.71459,-0.47896 1.7146,-1.69849 1.7146,-0.8217 1.7146,-2.61693 1.7146,0.95085 1.7146,-3.64551 1.7146,2.36586 h 1.7146 l 1.7146,-4.95527 1.7146,2.96536 1.7146,-1.02106 1.71459,-1.22483 1.7146,-0.14155 1.7146,-6.87592 1.7146,2.36053 1.7146,-0.75197 h 1.7146 l 1.7146,3.15506 1.7146,-2.22004 1.7146,-2.96996 1.7146,-1.11379 1.7146,-0.46618 1.7146,2.00635 1.71459,-1.31166 1.7146,-4.07181 1.7146,1.899 1.7146,-1.05976 1.7146,1.05976 1.7146,-5.37505 1.7146,-0.35315 1.7146,3.24646 1.7146,-1.22722 3.42919,-9.46749 1.7146,7.8014 1.7146,0.68561 1.7146,0.98048 1.7146,-6.46343 1.7146,0.45407 1.7146,1.70679 1.7146,-4.10516 1.7146,-0.52185 1.7146,2.46615 1.71459,0.89664 1.7146,-2.84094 1.7146,-0.52185 1.7146,-2.25871 1.7146,-1.90888 1.7146,-2.14317 1.7146,9.67355 1.7146,-4.45569 1.7146,-3.76029 1.7146,5.37504 1.7146,-6.08864 1.71459,0.7136 1.7146,2.59448 1.7146,-1.24915 1.7146,-3.57995 1.7146,1.52102 1.7146,-2.33422 1.7146,1.59025 1.7146,-5.28408 1.7146,6.02805 1.7146,-7.08781 1.7146,3.00406 1.71459,-1.9443 1.7146,-3.39398 1.7146,4.39315 1.7146,-5.68861 1.7146,4.68944 1.7146,-2.18794 1.7146,-5.42172 1.7146,6.5499 1.7146,3.00406 1.7146,2.56273 1.7146,-12.11669 1.71459,-10.59567 1.7146,13.51589 1.7146,-16.70299 1.7146,10.27491 1.7146,1.84178 1.7146,-6.23493 1.7146,7.90101 h 1.7146 l 1.7146,-7.90101 1.7146,7.90101 1.7146,9.55396 1.71459,-13.06182 1.7146,1.84178 1.7146,5.88176 1.7146,-5.88176 1.7146,3.1871 1.7146,-3.1871 1.7146,-1.84178 1.7146,-7.08781 h 1.7146 l 1.7146,8.92959 1.7146,-16.01739 h 1.71459 l 1.7146,9.78246 h 3.4292 l 1.7146,-2.69466 1.7146,-7.0878 1.7146,7.0878 1.7146,-31.321181 1.7146,38.408991 1.7146,5.02888 1.7146,-24.233375 1.71459,14.811345 1.7146,-34.015841 1.7146,46.132531 1.7146,-9.78247 1.7146,-8.21598 1.7146,8.21598 1.7146,-12.11668 1.7146,-24.233381 1.7146,28.134081 1.7146,5.88176 h 1.7146 l 1.71459,-5.88176 1.7146,-28.134081 1.7146,34.015841 1.7146,-2.69466 1.7146,7.08781 1.7146,-10.27491 h 1.7146 l 1.7146,-16.017393 h 1.7146 l 1.7146,7.087808 h 1.7146 l 1.71459,-19.204496 1.7146,12.116688 h 1.7146 l 1.7146,7.087808 1.7146,-19.204496 1.7146,12.116688 1.7146,7.087808 1.7146,-7.087808 1.7146,7.087808 1.7146,-7.087808 1.71459,16.017393 1.71461,-16.017393 h 5.14379 l 1.7146,7.087808 1.7146,-7.087808 1.7146,7.087808 h 1.7146 l 1.7146,5.028885 h 1.7146 l 1.71459,-24.233381 1.7146,31.321181 L 391.48958,-1 m 3.42115,0 0.003,78.345919 1.7146,12.116688 h 1.7146 L 398.34715,-1 m 3.42146,0 0.004,90.462607 h 1.7146 l 1.7146,12.116693 1.7146,-24.233381 1.71459,12.116688 h 1.7146 l 1.7146,7.087808 1.7146,-19.204496 L 413.77803,-1 m 3.42248,0 0.003,78.345919 1.7146,12.116688 h 1.7146 L 420.63694,-1 m 3.42197,0 0.003,78.345919 1.7146,12.116688 h 0.95407 v 0"
       style="fill:none;stroke:#2ca02c;stroke-width:1.5;stroke-linecap:square;stroke-linejoin:round;stroke-miterlimit:10;stroke-dasharray:none;stroke-opacity:1"
       transform="matrix(1.3333333,0,0,-1.3333333,0,414.47433)"
       clip-path="url(#clipPath80)" />
    <path
       id="path83"
       d="m 56.985019,-1 0.0052,292.55975 1.418822,-36.47643 1.418823,-5.90292 1.418822,-3.42575 1.418822,-2.39095 1.418823,-1.50975 1.418822,-0.27244 1.418823,-2.19098 1.418822,0.25745 1.418822,-1.71728 1.418823,-0.9859 1.418822,-1.55903 1.418822,-1.07607 1.418823,2.39481 2.837644,-1.8485 1.418823,-3.73342 1.418822,2.04042 1.418822,-1.22722 1.418823,-1.5789 1.418822,0.34446 1.418823,-2.3708 1.418822,3.60524 1.418822,-4.10048 1.418823,0.97683 1.418822,-0.67801 1.418822,-0.91224 1.418823,1.10866 1.418822,-2.85819 1.418822,-0.11538 1.418823,-1.3222 1.41882,1.20605 1.41882,-1.08163 1.41882,-1.55486 1.41883,-2.00819 1.41882,3.18711 1.41882,-0.2552 1.41882,-2.93191 1.41883,1.31716 1.41882,-2.0942 1.41882,-2.93468 1.41882,3.71172 1.41882,-1.0978 h 1.41883 l 1.41882,1.69549 1.41882,-4.12245 1.41882,-0.56699 1.41883,2.83134 1.41882,2.14945 1.41882,-2.31359 1.41882,-3.2532 2.83765,0.77705 1.41882,-1.17892 1.41882,-1.93235 h 1.41882 l 1.41883,2.13444 1.41882,-0.61342 1.41882,-2.21571 1.41882,-0.72344 1.41883,2.08627 1.41882,-0.89665 h 1.41882 l 1.41882,-1.6891 1.41883,0.49948 1.41882,-1.54341 1.41882,-1.11026 1.41882,2.89816 1.41882,-0.49244 1.41883,-3.59131 1.41882,-6.19116 1.41882,5.24603 1.41882,-6.60885 1.41883,9.84983 1.41882,-7.63413 1.41882,5.6423 1.41882,-0.92839 1.41883,-2.74771 1.41882,-3.26165 2.83764,0.87421 1.41883,-3.79443 2.83764,1.99997 1.41882,-2.53788 1.41882,6.34383 1.41883,-3.33977 1.41882,-3.00406 1.41882,1.05976 1.41882,-1.05976 1.41883,-5.02888 1.41882,2.05892 1.41882,5.02888 1.41882,-3.77972 1.41883,-0.61342 1.41882,0.61342 1.41882,-4.8291 1.41882,0.77704 1.41883,2.14318 1.41882,0.65972 1.41882,1.24916 1.41882,-2.59449 h 1.41882 l 1.41883,0.68561 1.41882,-2.14318 1.41882,-2.44313 1.41883,1.66609 1.41882,-9.19647 1.41882,12.11669 1.41882,1.29546 1.41882,-5.88177 1.41883,0.85289 1.41882,-3.69383 1.41882,6.74164 1.41882,-5.74247 1.41883,5.74247 1.41882,-4.79734 1.41882,6.77841 1.41882,-6.77841 1.41882,-0.94513 1.41883,-5.68861 1.41882,5.68861 1.41882,6.42808 1.41882,-18.54477 1.41883,1.84177 1.41882,10.27492 1.41882,-12.11669 1.41882,8.92958 1.41883,-8.92958 1.41882,12.11669 1.41882,-14.17562 1.41882,-2.33422 1.41883,12.11669 1.41882,2.33422 1.41882,-8.21599 1.41882,-8.92958 1.41882,8.92958 1.41883,-6.23492 1.41882,9.42203 1.41882,-15.3038 1.41882,3.18711 h 1.41883 l 1.41882,5.02888 1.41882,9.78247 1.41882,-21.89916 1.41883,-12.11669 1.41882,31.32119 1.41882,-5.02888 1.41882,-2.05893 1.41883,5.56679 1.41882,-5.56679 h 1.41882 l 1.41882,-2.33422 1.41883,-5.88177 1.41882,-3.9007 h 1.41882 l 1.41882,9.78247 1.41883,-9.78247 1.41882,9.78247 1.41882,-9.78247 1.41882,9.78247 1.41882,2.33422 1.41883,2.05893 1.41882,-2.05893 1.41882,-5.02888 1.41882,10.59567 1.41883,-22.71236 1.41882,12.11669 h 1.41882 l 1.41882,2.69466 1.41883,-14.81135 1.41882,8.92958 1.41882,-8.92958 1.41882,-7.08781 1.41883,21.89916 1.41882,-9.78247 1.41882,-24.23337 1.41882,24.23337 h 1.41882 l 1.41883,-5.02888 1.41882,12.11669 1.41882,2.69466 1.41882,-2.69466 1.41883,-3.18711 1.41882,-16.01739 1.41882,19.2045 1.41882,-31.32118 1.41883,19.20449 1.41882,5.02888 h 1.41882 l 1.41882,-5.02888 1.41882,-19.20449 1.41883,19.20449 1.41882,5.02888 1.41882,-12.11669 1.41882,7.08781 1.41883,5.02888 h 2.83764 l 1.41882,-12.11669 1.41883,12.11669 L 340.76041,-1 m 2.8263,0 0.006,157.85598 1.41882,8.92958 1.41883,-8.92958 1.41882,-7.08781 h 2.83764 l 1.41883,7.08781 h 1.41882 l 1.41882,-7.08781 1.41882,7.08781 1.41882,-7.08781 1.41883,-12.11668 1.41882,24.23337 1.41882,-12.11669 h 1.41882 l 1.41883,12.11669 1.41882,-12.11669 h 1.41882 L 369.13151,137.65149 369.136,-1 m 2.82684,0 0.006,166.78556 1.41882,-16.01739 h 2.83764 l 1.41883,-12.11668 1.41882,12.11668 1.41882,7.08781 h 1.41882 l 1.41883,-19.20449 1.41882,19.20449 1.41882,-7.08781 h 1.41882 l 1.41883,-12.11668 1.41882,24.23337 L 390.41919,-1 m 4.2458,0 0.005,138.65149 h 1.41882 L 396.09362,-1 m 2.82716,0 0.006,157.85598 L 398.93195,-1 m 2.82715,0 0.005,138.65149 1.41882,12.11668 h 1.41882 l 1.41882,7.08781 1.41883,-7.08781 h 2.83764 L 411.69585,137.65149 411.70067,-1 m 2.82783,0 0.005,138.65149 h 1.41882 l 1.41882,12.11668 h 1.41883 l 1.41882,-12.11668 h 2.83764 l 1.41882,19.20449 h 1.41883 L 425.89008,-1 v 0"
       style="fill:none;stroke:#d62728;stroke-width:1.5;stroke-linecap:square;stroke-linejoin:round;stroke-miterlimit:10;stroke-dasharray:none;stroke-opacity:1"
       transform="matrix(1.3333333,0,0,-1.3333333,0,414.47433)"
       clip-path="url(#clipPath80)" />
    <path
       id="path84"
       d="m 51.871875,37.54375 v 266.112"
       style="fill:none;stroke:#000000;stroke-width:0.8;stroke-linecap:square;stroke-linejoin:miter;stroke-miterlimit:10;stroke-dasharray:none;stroke-opacity:1"
       transform="matrix(1.3333333,0,0,-1.3333333,0,414.47433)" />
    <path
       id="path85"
       d="m 408.99187,37.54375 v 266.112"
       style="fill:none;stroke:#000000;stroke-width:0.8;stroke-linecap:square;stroke-linejoin:miter;stroke-miterlimit:10;stroke-dasharray:none;stroke-opacity:1"
       transform="matrix(1.3333333,0,0,-1.3333333,0,414.47433)" />
    <path
       id="path86"
       d="M 51.871875,37.54375 H 408.99187"
       style="fill:none;stroke:#000000;stroke-width:0.8;stroke-linecap:square;stroke-linejoin:miter;stroke-miterlimit:10;stroke-dasharray:none;stroke-opacity:1"
       transform="matrix(1.3333333,0,0,-1.3333333,0,414.47433)" />
    <path
       id="path87"
       d="M 51.871875,303.65575 H 408.99187"
       style="fill:none;stroke:#000000;stroke-width:0.8;stroke-linecap:square;stroke-linejoin:miter;stroke-miterlimit:10;stroke-dasharray:none;stroke-opacity:1"
       transform="matrix(1.3333333,0,0,-1.3333333,0,414.47433)" />
    <path
       id="path88"
       d="m 184.10125,236.65575 h 217.89062 c 1.33334,0 2,0.66667 2,2 v 58 c 0,1.33333 -0.66666,2 -2,2 H 184.10125 c -1.33333,0 -2,-0.66667 -2,-2 v -58 c 0,-1.33333 0.66667,-2 2,-2 z"
       style="fill:#ffffff;fill-opacity:0.8;fill-rule:nonzero;stroke:#cccccc;stroke-width:1;stroke-linecap:butt;stroke-linejoin:miter;stroke-miterlimit:10;stroke-dasharray:none;stroke-opacity:0.8"
       transform="matrix(1.3333333,0,0,-1.3333333,0,414.47433)" />
    <path
       id="path89"
       d="m 186.10125,290.48387 h 10 10"
       style="fill:none;stroke:#1f77b4;stroke-width:1.5;stroke-linecap:square;stroke-linejoin:round;stroke-miterlimit:10;stroke-dasharray:none;stroke-opacity:1"
       transform="matrix(1.3333333,0,0,-1.3333333,0,414.47433)" />
    <text
       id="text89"
       xml:space="preserve"
       transform="matrix(1.3333333,0,0,1.3333333,293.62589,31.829167)"><tspan
         id="tspan89"
         style="font-variant:normal;font-weight:normal;font-size:10px;font-family:'DejaVu Sans';writing-mode:lr-tb;fill:#000000;fill-opacity:1;fill-rule:nonzero;stroke:none"
         x="0"
         y="0">=<tspan
   style="font-size:9px"
   id="tspan97">0.190,</tspan> scaling factor = <tspan
   style="font-size:9px"
   id="tspan96">1,024,048.0</tspan></tspan></text>
    <path
       d="M 461,347 H 150 c 5,-98 19,-167 41,-208 28,-51 66,-76 115,-76 48,0 86,25 114,76 24,45 37,114 41,208 z m -1,83 c -10,92 -23,154 -40,187 -28,51 -66,77 -114,77 -50,0 -88,-26 -114,-76 C 171,577 157,514 151,430 Z M 306,768 c 78,0 139,-35 184,-104 44,-69 67,-164 67,-286 C 557,256 534,161 490,93 445,24 384,-10 306,-10 227,-10 166,24 122,93 77,161 55,256 55,378 c 0,122 22,217 67,286 44,69 105,104 184,104 z"
       style="fill:#000000;fill-opacity:1;fill-rule:nonzero;stroke:none"
       transform="matrix(0.01333333,0,0,-0.01333333,285.46833,31.829167)"
       opacity="1"
       id="path90" />
    <path
       id="path91"
       d="m 186.10125,275.73387 h 10 10"
       style="fill:none;stroke:#ff7f0e;stroke-width:1.5;stroke-linecap:square;stroke-linejoin:round;stroke-miterlimit:10;stroke-dasharray:none;stroke-opacity:1"
       transform="matrix(1.3333333,0,0,-1.3333333,0,414.47433)" />
    <text
       id="text91"
       xml:space="preserve"
       transform="matrix(1.3333333,0,0,1.3333333,293.62589,51.495833)"><tspan
         id="tspan91"
         style="font-variant:normal;font-weight:normal;font-size:10px;font-family:'DejaVu Sans';writing-mode:lr-tb;fill:#000000;fill-opacity:1;fill-rule:nonzero;stroke:none"
         x="0"
         y="0">=<tspan
   style="font-size:9px"
   id="tspan98">0.200,</tspan> scaling factor = <tspan
   style="font-size:9px"
   id="tspan101">632,125.0</tspan></tspan></text>
    <path
       d="M 461,347 H 150 c 5,-98 19,-167 41,-208 28,-51 66,-76 115,-76 48,0 86,25 114,76 24,45 37,114 41,208 z m -1,83 c -10,92 -23,154 -40,187 -28,51 -66,77 -114,77 -50,0 -88,-26 -114,-76 C 171,577 157,514 151,430 Z M 306,768 c 78,0 139,-35 184,-104 44,-69 67,-164 67,-286 C 557,256 534,161 490,93 445,24 384,-10 306,-10 227,-10 166,24 122,93 77,161 55,256 55,378 c 0,122 22,217 67,286 44,69 105,104 184,104 z"
       style="fill:#000000;fill-opacity:1;fill-rule:nonzero;stroke:none"
       transform="matrix(0.01333333,0,0,-0.01333333,285.46833,51.495833)"
       opacity="1"
       id="path92" />
    <path
       id="path93"
       d="m 186.10125,260.98387 h 10 10"
       style="fill:none;stroke:#2ca02c;stroke-width:1.5;stroke-linecap:square;stroke-linejoin:round;stroke-miterlimit:10;stroke-dasharray:none;stroke-opacity:1"
       transform="matrix(1.3333333,0,0,-1.3333333,0,414.47433)" />
    <text
       id="text93"
       xml:space="preserve"
       transform="matrix(1.3333333,0,0,1.3333333,293.62589,71.1625)"><tspan
         id="tspan93"
         style="font-variant:normal;font-weight:normal;font-size:10px;font-family:'DejaVu Sans';writing-mode:lr-tb;fill:#000000;fill-opacity:1;fill-rule:nonzero;stroke:none"
         x="0"
         y="0">=<tspan
   style="font-size:9px"
   id="tspan99">0.210,</tspan> scaling factor = <tspan
   style="font-size:9px"
   id="tspan102">209,885.0</tspan></tspan></text>
    <path
       d="M 461,347 H 150 c 5,-98 19,-167 41,-208 28,-51 66,-76 115,-76 48,0 86,25 114,76 24,45 37,114 41,208 z m -1,83 c -10,92 -23,154 -40,187 -28,51 -66,77 -114,77 -50,0 -88,-26 -114,-76 C 171,577 157,514 151,430 Z M 306,768 c 78,0 139,-35 184,-104 44,-69 67,-164 67,-286 C 557,256 534,161 490,93 445,24 384,-10 306,-10 227,-10 166,24 122,93 77,161 55,256 55,378 c 0,122 22,217 67,286 44,69 105,104 184,104 z"
       style="fill:#000000;fill-opacity:1;fill-rule:nonzero;stroke:none"
       transform="matrix(0.01333333,0,0,-0.01333333,285.46833,71.1625)"
       opacity="1"
       id="path94" />
    <path
       id="path95"
       d="m 186.10125,246.23387 h 10 10"
       style="fill:none;stroke:#d62728;stroke-width:1.5;stroke-linecap:square;stroke-linejoin:round;stroke-miterlimit:10;stroke-dasharray:none;stroke-opacity:1"
       transform="matrix(1.3333333,0,0,-1.3333333,0,414.47433)" />
    <text
       id="text95"
       xml:space="preserve"
       transform="matrix(1.3333333,0,0,1.3333333,293.62589,90.829167)"><tspan
         id="tspan95"
         style="font-variant:normal;font-weight:normal;font-size:10px;font-family:'DejaVu Sans';writing-mode:lr-tb;fill:#000000;fill-opacity:1;fill-rule:nonzero;stroke:none"
         x="0"
         y="0">=<tspan
   style="font-size:9px"
   id="tspan100">0.270,</tspan> scaling factor = <tspan
   style="font-size:9px"
   id="tspan103">6,664.0</tspan></tspan></text>
    <path
       d="M 461,347 H 150 c 5,-98 19,-167 41,-208 28,-51 66,-76 115,-76 48,0 86,25 114,76 24,45 37,114 41,208 z m -1,83 c -10,92 -23,154 -40,187 -28,51 -66,77 -114,77 -50,0 -88,-26 -114,-76 C 171,577 157,514 151,430 Z M 306,768 c 78,0 139,-35 184,-104 44,-69 67,-164 67,-286 C 557,256 534,161 490,93 445,24 384,-10 306,-10 227,-10 166,24 122,93 77,161 55,256 55,378 c 0,122 22,217 67,286 44,69 105,104 184,104 z"
       style="fill:#000000;fill-opacity:1;fill-rule:nonzero;stroke:none"
       transform="matrix(0.01333333,0,0,-0.01333333,285.46833,90.829167)"
       opacity="1"
       id="path96" />
  </g>
</svg>
